<svg xmlns="http://www.w3.org/2000/svg" xmlns:xlink="http://www.w3.org/1999/xlink" viewBox="0 0 1082.26 1239.98"><defs><style>.cls-1{mask:url(#mask);}.cls-2{mix-blend-mode:multiply;fill:url(#radial-gradient);}.cls-3{fill:none;}.cls-4{mask:url(#mask-2);}.cls-5{fill:url(#radial-gradient-2);}.cls-6{clip-path:url(#clip-path);}.cls-7{fill:url(#linear-gradient);}.cls-8{fill:#fff;}.cls-9{fill:url(#linear-gradient-2);}.cls-10{fill:url(#linear-gradient-3);}.cls-11{fill:url(#linear-gradient-4);}.cls-12{fill:url(#radial-gradient-3);}.cls-13{fill:url(#linear-gradient-5);}.cls-14{fill:url(#linear-gradient-6);}.cls-15{fill:url(#linear-gradient-7);}.cls-16{fill:url(#linear-gradient-8);}.cls-17{fill:url(#radial-gradient-4);}.cls-18{fill:url(#radial-gradient-5);}.cls-19{fill:url(#radial-gradient-6);}.cls-20{fill:url(#radial-gradient-7);}.cls-21{fill:url(#radial-gradient-8);}.cls-22{fill:url(#radial-gradient-9);}.cls-23{fill:url(#radial-gradient-10);}.cls-24{fill:#f90303;}.cls-25{fill:url(#linear-gradient-9);}.cls-26{fill:#1c0c09;}.cls-27{fill:url(#radial-gradient-11);}.cls-28{fill:url(#radial-gradient-12);}.cls-29{fill:url(#radial-gradient-13);}.cls-30{fill:url(#radial-gradient-14);}.cls-31{fill:url(#radial-gradient-15);}.cls-32{fill:#f7e8a1;}.cls-33{fill:#fb4d68;}.cls-34{fill:#951a30;}.cls-35{fill:#f97878;}.cls-36{fill:#bc4408;}.cls-37{fill:#51332e;}.cls-38{fill:#f25d0a;}.cls-39{fill:#514e4c;}.cls-40{fill:#332626;}.cls-41{fill:#f9d608;}.cls-42{fill:#4c3d24;}.cls-43{fill:#8b8aa3;}.cls-44{fill:#f9c88f;}.cls-45{fill:#443e3b;}.cls-46{fill:#6b5555;}.cls-47{fill:#301e1e;}.cls-48{fill:#6b6765;}.cls-49{fill:#f2b191;}.cls-50{fill:#7c4e4d;}.cls-51{fill:#f4873d;}.cls-52{fill:#eee9d4;}.cls-53{fill:#1cb2f4;}.cls-54{fill:#234468;}.cls-55{fill:#c69030;}.cls-56{fill:#876426;}.cls-57{fill:#422f0f;}.cls-58{fill:#eb3736;}.cls-59{fill:#ee737a;}.cls-60{opacity:0.53;}.cls-61{filter:url(#luminosity-noclip-2);}.cls-62{filter:url(#luminosity-noclip);}</style><filter id="luminosity-noclip" x="0.92" y="-8704" width="1022.3" height="32766" filterUnits="userSpaceOnUse" color-interpolation-filters="sRGB"><feFlood flood-color="#fff" result="bg"/><feBlend in="SourceGraphic" in2="bg"/></filter><mask id="mask" x="0.92" y="-8704" width="1022.3" height="32766" maskUnits="userSpaceOnUse"><g class="cls-62"/></mask><radialGradient id="radial-gradient" cx="497.04" cy="323.64" r="230.21" gradientTransform="translate(-989.32 -883.9) scale(2.94 2.94)" gradientUnits="userSpaceOnUse"><stop offset="0" stop-color="#e6e6e6"/><stop offset="0.39" stop-color="#ebebeb"/><stop offset="0.85" stop-color="#f9f9f9"/><stop offset="1" stop-color="#fff"/></radialGradient><filter id="luminosity-noclip-2" x="0.92" y="2.48" width="1022.3" height="1021.52" filterUnits="userSpaceOnUse" color-interpolation-filters="sRGB"><feFlood flood-color="#fff" result="bg"/><feBlend in="SourceGraphic" in2="bg"/></filter><mask id="mask-2" x="28.76" y="2.48" width="1022.3" height="1021.52" maskUnits="userSpaceOnUse"><g class="cls-61"><g transform="translate(27.84)"><g class="cls-1"><rect class="cls-2" x="0.92" y="2.48" width="1022.3" height="1021.52" rx="37"/></g></g></g></mask><radialGradient id="radial-gradient-2" cx="497.04" cy="323.64" r="230.21" gradientTransform="translate(-961.47 -883.9) scale(2.94 2.94)" gradientUnits="userSpaceOnUse"><stop offset="0" stop-color="#f49966"/><stop offset="0.17" stop-color="#f29464"/><stop offset="0.36" stop-color="#eb865f"/><stop offset="0.57" stop-color="#e06f57"/><stop offset="0.79" stop-color="#d14f4b"/><stop offset="1" stop-color="#bf283d"/></radialGradient><clipPath id="clip-path" transform="translate(27.84)"><rect class="cls-3" x="1.7" width="1022.3" height="1021.52" rx="37"/></clipPath><linearGradient id="linear-gradient" x1="712.48" y1="129.45" x2="712.48" y2="179.24" gradientUnits="userSpaceOnUse"><stop offset="0" stop-color="#707b88"/><stop offset="0.86" stop-color="#00142b"/></linearGradient><linearGradient id="linear-gradient-2" x1="677.2" y1="171.78" x2="677.2" y2="223.24" xlink:href="#linear-gradient"/><linearGradient id="linear-gradient-3" x1="641.91" y1="214.12" x2="641.91" y2="267.19" xlink:href="#linear-gradient"/><linearGradient id="linear-gradient-4" x1="677.19" y1="117.09" x2="677.19" y2="274.17" gradientUnits="userSpaceOnUse"><stop offset="0" stop-color="#c2c7cc"/><stop offset="1" stop-color="#fff"/></linearGradient><radialGradient id="radial-gradient-3" cx="545.84" cy="383.59" r="42.81" gradientTransform="translate(-989.32 -883.9) scale(2.94 2.94)" gradientUnits="userSpaceOnUse"><stop offset="0" stop-color="#e8eaec"/><stop offset="0.79" stop-color="#63707e"/></radialGradient><linearGradient id="linear-gradient-5" x1="2178.42" y1="129.45" x2="2178.42" y2="179.24" gradientTransform="matrix(-1, 0, 0, 1, 2490.07, 0)" xlink:href="#linear-gradient"/><linearGradient id="linear-gradient-6" x1="2143.13" y1="171.78" x2="2143.13" y2="223.24" gradientTransform="matrix(-1, 0, 0, 1, 2490.07, 0)" xlink:href="#linear-gradient"/><linearGradient id="linear-gradient-7" x1="2107.84" y1="214.12" x2="2107.84" y2="267.19" gradientTransform="matrix(-1, 0, 0, 1, 2490.07, 0)" xlink:href="#linear-gradient"/><linearGradient id="linear-gradient-8" x1="2143.13" y1="117.09" x2="2143.13" y2="274.17" gradientTransform="matrix(-1, 0, 0, 1, 2490.07, 0)" xlink:href="#linear-gradient-4"/><radialGradient id="radial-gradient-4" cx="474.39" cy="383.59" r="42.81" xlink:href="#radial-gradient-3"/><radialGradient id="radial-gradient-5" cx="2124.04" cy="920.56" r="103.33" gradientTransform="translate(6880.06 2735.94) rotate(180) scale(3 2.94)" gradientUnits="userSpaceOnUse"><stop offset="0.64" stop-color="#edeff0"/><stop offset="0.87" stop-color="#4d5a6b"/><stop offset="1" stop-color="#26374b"/></radialGradient><radialGradient id="radial-gradient-6" cx="2144.46" cy="927.15" r="103.33" gradientTransform="translate(6781.62 2690.82) rotate(180) scale(2.92 2.87)" gradientUnits="userSpaceOnUse"><stop offset="0.37" stop-color="#edeff0"/><stop offset="0.86" stop-color="#4d5a6b"/><stop offset="1" stop-color="#17293e"/></radialGradient><radialGradient id="radial-gradient-7" cx="524.43" cy="307.55" r="101.6" gradientTransform="translate(-1062.25 -883.9) scale(3 2.94)" gradientUnits="userSpaceOnUse"><stop offset="0.55" stop-color="#fff"/><stop offset="1" stop-color="#ccd0d5"/></radialGradient><radialGradient id="radial-gradient-8" cx="509.59" cy="307.63" r="74.36" gradientTransform="translate(-989.32 -883.9) scale(2.94 2.94)" gradientUnits="userSpaceOnUse"><stop offset="0.72" stop-color="#fff"/><stop offset="1" stop-color="#a8afb7"/></radialGradient><radialGradient id="radial-gradient-9" cx="493.93" cy="322.61" r="85.96" gradientTransform="translate(-989.32 -883.9) scale(2.94 2.94)" gradientUnits="userSpaceOnUse"><stop offset="0.53" stop-color="red"/><stop offset="0.88" stop-color="#600"/></radialGradient><radialGradient id="radial-gradient-10" cx="495.05" cy="317.71" r="80.39" gradientTransform="translate(-989.32 -836.08) scale(2.94 2.85)" gradientUnits="userSpaceOnUse"><stop offset="0" stop-color="#ff7d75"/><stop offset="0.13" stop-color="#ff7a72"/><stop offset="0.23" stop-color="#ff7169"/><stop offset="0.32" stop-color="#ff615a"/><stop offset="0.4" stop-color="#ff4a45"/><stop offset="0.48" stop-color="#ff2d2a"/><stop offset="0.55" stop-color="#ff0a09"/><stop offset="0.56" stop-color="red"/><stop offset="0.87" stop-color="#700000"/></radialGradient><linearGradient id="linear-gradient-9" x1="507.86" y1="191.39" x2="507.86" y2="312.14" gradientUnits="userSpaceOnUse"><stop offset="0" stop-color="#ff7c60"/><stop offset="0.2" stop-color="#ff795d"/><stop offset="0.38" stop-color="#ff6e55"/><stop offset="0.55" stop-color="#ff5c47"/><stop offset="0.71" stop-color="#ff4334"/><stop offset="0.86" stop-color="#ff231b"/><stop offset="1" stop-color="red"/></linearGradient><radialGradient id="radial-gradient-11" cx="464.08" cy="340.36" r="43.74" gradientTransform="translate(-989.32 -883.9) scale(2.94 2.94)" gradientUnits="userSpaceOnUse"><stop offset="0.33" stop-color="#fff"/><stop offset="1" stop-color="#a8afb7"/></radialGradient><radialGradient id="radial-gradient-12" cx="471.46" cy="354.17" r="106.44" xlink:href="#radial-gradient-3"/><radialGradient id="radial-gradient-13" cx="503.79" cy="314.74" r="51.44" gradientTransform="translate(-989.32 -883.9) scale(2.94 2.94)" gradientUnits="userSpaceOnUse"><stop offset="0.3" stop-color="#fff"/><stop offset="1" stop-color="#a8afb7"/></radialGradient><radialGradient id="radial-gradient-14" cx="438.55" cy="284.29" r="102.46" xlink:href="#radial-gradient-8"/><radialGradient id="radial-gradient-15" cx="526.89" cy="337.16" r="33.27" gradientTransform="translate(-989.32 -883.9) scale(2.94 2.94)" gradientUnits="userSpaceOnUse"><stop offset="0.09" stop-color="#fff"/><stop offset="1" stop-color="#a8afb7"/></radialGradient></defs><title>appiconLayer 1</title><g id="Layer_2" data-name="Layer 2"><g id="Layer_1-2" data-name="Layer 1"><g class="cls-4"><rect class="cls-5" x="28.76" y="2.48" width="1022.3" height="1021.52" rx="37"/></g><rect class="cls-3" x="27.84" width="1022.3" height="1021.52" rx="37"/><rect class="cls-3" x="29.55" y="2.48" width="1022.3" height="1021.52" rx="37"/><rect class="cls-3" x="29.55" y="2.48" width="1022.3" height="1021.52" rx="37"/><g class="cls-6"><path class="cls-7" d="M751.74,169H624.35V132.19H800.61S796.3,169,751.74,169Z" transform="translate(27.84)"/><path class="cls-8" d="M751.74,162.71H624.35V132.19H800.61S796.3,162.71,751.74,162.71Z" transform="translate(27.84)"/><path class="cls-9" d="M716.46,212.69H589.07V174.61H765.32S761,212.69,716.46,212.69Z" transform="translate(27.84)"/><path class="cls-8" d="M716.46,205.14H589.07V174.61H765.32S761,205.14,716.46,205.14Z" transform="translate(27.84)"/><path class="cls-10" d="M681.17,256.31H553.78V217H730S725.73,256.31,681.17,256.31Z" transform="translate(27.84)"/><path class="cls-8" d="M681.17,247.57H553.78V217H730S725.73,247.57,681.17,247.57Z" transform="translate(27.84)"/><path class="cls-11" d="M624.35,132.19v28.73H751.74c44.56,0,48.87-28.73,48.87-28.73Zm-35.28,71.16H716.46c44.56,0,48.86-28.74,48.86-28.74H589.07Zm-35.29,42.42H681.17C725.73,245.77,730,217,730,217H553.78Z" transform="translate(27.84)"/><path class="cls-12" d="M552,245.77H673.35A152.31,152.31,0,0,0,680.51,217H552ZM669.18,132.19H622.55v28.73h56A154,154,0,0,0,669.18,132.19Zm11.74,42.42H587.27v28.74h94.65c.18-3,.29-6,.29-9.07A155.83,155.83,0,0,0,680.92,174.61Z" transform="translate(27.84)"/><path class="cls-13" d="M272.39,169H399.78V132.19H223.52S227.83,169,272.39,169Z" transform="translate(27.84)"/><path class="cls-8" d="M272.39,162.71H399.78V132.19H223.52S227.83,162.71,272.39,162.71Z" transform="translate(27.84)"/><path class="cls-14" d="M307.68,212.69H435.06V174.61H258.81S263.12,212.69,307.68,212.69Z" transform="translate(27.84)"/><path class="cls-8" d="M307.68,205.14H435.06V174.61H258.81S263.12,205.14,307.68,205.14Z" transform="translate(27.84)"/><path class="cls-15" d="M343,256.31H470.35V217H294.09S298.4,256.31,343,256.31Z" transform="translate(27.84)"/><path class="cls-8" d="M343,247.57H470.35V217H294.09S298.4,247.57,343,247.57Z" transform="translate(27.84)"/><path class="cls-16" d="M223.52,132.19s4.31,28.73,48.87,28.73H399.78V132.19Zm211.54,42.42H258.81s4.31,28.74,48.87,28.74H435.06ZM470.35,217H294.09s4.31,28.73,48.87,28.73H470.35Z" transform="translate(27.84)"/><path class="cls-17" d="M472.14,217H343.62a153.85,153.85,0,0,0,7.16,28.73H472.14ZM345.58,160.92h56V132.19H355A153.29,153.29,0,0,0,345.58,160.92Zm-3.66,33.36c0,3,.11,6.06.29,9.07h94.65V174.61H343.21A157.72,157.72,0,0,0,341.92,194.28Z" transform="translate(27.84)"/><path class="cls-18" d="M352.6,180.83c0-86.7,71.68-157,160.09-157s160.1,70.29,160.1,157-71.67,157-160.09,157S352.6,267.54,352.6,180.83Z" transform="translate(27.84)"/><path class="cls-19" d="M356.58,177.13c0-84.66,69.89-153.29,156.11-153.29S668.81,92.47,668.81,177.13,598.92,330.42,512.7,330.42,356.58,261.79,356.58,177.13Z" transform="translate(27.84)"/><path class="cls-20" d="M668.68,173.22c0,84.47-69.83,153-156,153s-156-68.48-156-153,69.83-153,156-153S668.68,88.74,668.68,173.22Z" transform="translate(27.84)"/><path class="cls-21" d="M512.7,215c61.95,0,117.54-20,155.63-51.57C663.19,83.53,595.5,20.25,512.7,20.25S362.21,83.53,357.07,163.46C395.17,195.07,450.75,215,512.7,215Z" transform="translate(27.84)"/><path class="cls-8" d="M651.89,173.18c0,74.91-62.31,135.64-139.19,135.64S373.51,248.09,373.51,173.18,435.83,37.54,512.7,37.54,651.89,98.27,651.89,173.18Z" transform="translate(27.84)"/><path class="cls-22" d="M645.82,177.13A132.55,132.55,0,1,1,513.27,44.69,132.49,132.49,0,0,1,645.82,177.13Z" transform="translate(27.84)"/><path class="cls-23" d="M637.22,173.61c0,66.45-55.49,120.32-124,120.32S389.32,240.06,389.32,173.61s55.5-120.33,124-120.33S637.22,107.15,637.22,173.61Z" transform="translate(27.84)"/><path class="cls-24" d="M511.83,230.1c72.22-10.21,127.24-101,127.24-62.51,0,72.2-56.32,130.72-125.8,130.72s-125.8-58.52-125.8-130.72C395.15,191.53,428.71,241.86,511.83,230.1Z" transform="translate(27.84)"/><path class="cls-25" d="M514.69,264.9c57.8-6.24,90.95-49.33,90.37-32.76-.91,26.37-45,56.36-90.33,56.36s-87.7-29-104.08-59.63C415.65,239.18,450.73,271.82,514.69,264.9Z" transform="translate(27.84)"/><path class="cls-26" d="M420.33,161.21c.63-2.16,1.19-4.35,1.9-6.49a30.32,30.32,0,0,1,7.22-12c8.75-8.83,21.62-8.25,29.52,1.35a32.45,32.45,0,0,1,7,17.83,38.82,38.82,0,0,1-4.22,22.46,26.37,26.37,0,0,1-7.2,8.74c-9.18,7.09-21,5.23-28.16-4.44a33.67,33.67,0,0,1-6.16-17.15c0-.43.18-.94-.33-1.24l.05-1.18a3,3,0,0,0,.12-2.36l.09-2a3,3,0,0,0,.11-2.36Z" transform="translate(27.84)"/><path class="cls-26" d="M520.47,165.22c16.54,1,32,7,44,20.51A48.28,48.28,0,0,1,572,197.39c1.89,4,4.6,7.61,6.13,11.84,4,11,5.29,22.07.89,33.21-3.09,7.85-8.38,13.59-16.93,15.56-5.31,1.22-10.09-.55-14.65-3.11a110.1,110.1,0,0,1-13.9-9.61A31.76,31.76,0,0,0,512,238.4a22.35,22.35,0,0,0-8.66,2.21c-6.21,2.83-12,6.45-18.13,9.43a32.89,32.89,0,0,1-9.83,3.31c-8.4,1.15-14.51-2.66-19.1-9.21-5.21-7.42-6-15.84-4.59-24.5a51.24,51.24,0,0,1,12.12-25.8c1.83-2.11,3.06-4.73,4.79-6.94,9.67-12.38,22.61-19,38-21.16A76.36,76.36,0,0,1,520.47,165.22Z" transform="translate(27.84)"/><path class="cls-26" d="M523.94,121c.67-10.84,3.9-20.69,11.38-28.84,4.39-4.78,9.72-8,16.29-8.69,7.25-.76,13.44,1.75,18.64,6.69,6.82,6.45,10.25,14.63,11.56,23.75,1.7,11.82-.24,23-6.53,33.26-3.85,6.26-9,11.25-16.14,13.42-10.11,3.05-18.48-.27-25.27-7.92-6-6.81-8.81-15.06-9.77-24A56.21,56.21,0,0,1,523.94,121Z" transform="translate(27.84)"/><path class="cls-26" d="M520.08,123.53A42.78,42.78,0,0,1,508,150.78c-5.8,5.86-12.76,8.94-21.17,7.69-7.4-1.11-12.9-5.34-17.08-11.28-7.16-10.17-9-21.61-7.46-33.73a43.8,43.8,0,0,1,9.44-22.54c12.09-14.78,30.78-13.83,41.34,2.08C518.17,100.7,520.68,110.51,520.08,123.53Z" transform="translate(27.84)"/><path class="cls-26" d="M621.76,175.5c-.62,8.13-2.82,15.57-8.21,21.78-9.24,10.63-23.68,10-31.79-1.54-5.5-7.79-6.88-16.6-5.73-25.88.89-7.11,3.38-13.6,8.31-19,9.23-10,22.9-9.29,31,1.65C620.48,159.4,622,167.28,621.76,175.5Z" transform="translate(27.84)"/><path class="cls-27" d="M413.44,151.78c.62-2.16,1.19-4.35,1.89-6.49a30.34,30.34,0,0,1,7.23-12c8.74-8.83,21.62-8.25,29.52,1.35,4.27,5.18,6.32,11.27,7,17.84a38.81,38.81,0,0,1-4.23,22.45,26.25,26.25,0,0,1-7.2,8.74c-9.17,7.09-21,5.23-28.15-4.44a33.58,33.58,0,0,1-6.16-17.15c0-.43.18-.94-.34-1.24l.06-1.18a3,3,0,0,0,.11-2.36c0-.66.06-1.31.1-2a3,3,0,0,0,.11-2.36Z" transform="translate(27.84)"/><path class="cls-28" d="M513.58,155.79c16.54,1,32,7,43.95,20.51A48.32,48.32,0,0,1,565.12,188c1.88,4,4.6,7.61,6.13,11.85,4,11,5.28,22.06.89,33.2-3.1,7.85-8.39,13.59-16.94,15.56-5.31,1.22-10.08-.55-14.64-3.11a109.07,109.07,0,0,1-13.9-9.61A31.79,31.79,0,0,0,505.09,229a22.44,22.44,0,0,0-8.66,2.21c-6.21,2.83-12,6.45-18.13,9.43a32.89,32.89,0,0,1-9.83,3.31c-8.39,1.15-14.5-2.66-19.1-9.21-5.2-7.42-6-15.84-4.58-24.5a51.16,51.16,0,0,1,12.12-25.8c1.82-2.11,3-4.73,4.78-6.94,9.67-12.38,22.61-19,38-21.16A76.36,76.36,0,0,1,513.58,155.79Z" transform="translate(27.84)"/><path class="cls-29" d="M517.05,111.62c.67-10.85,3.9-20.7,11.37-28.85,4.39-4.78,9.73-8,16.3-8.69,7.25-.76,13.43,1.75,18.64,6.69,6.81,6.45,10.24,14.63,11.55,23.75,1.7,11.82-.23,23-6.53,33.26-3.84,6.26-9,11.25-16.14,13.42-10.1,3.05-18.48-.27-25.26-7.92-6.05-6.81-8.82-15.06-9.77-24A56.1,56.1,0,0,1,517.05,111.62Z" transform="translate(27.84)"/><path class="cls-30" d="M513.18,114.1a42.68,42.68,0,0,1-12.08,27.25c-5.79,5.86-12.76,8.94-21.16,7.69-7.41-1.11-12.91-5.34-17.09-11.28-7.16-10.17-9-21.61-7.45-33.72a43.83,43.83,0,0,1,9.44-22.55c12.09-14.78,30.77-13.83,41.33,2.08C511.28,91.27,513.79,101.08,513.18,114.1Z" transform="translate(27.84)"/><path class="cls-31" d="M614.87,166.07c-.63,8.14-2.82,15.57-8.21,21.78-9.24,10.63-23.69,10-31.8-1.54-5.5-7.79-6.87-16.6-5.72-25.88.88-7.11,3.37-13.6,8.3-19,9.23-10,22.9-9.29,31,1.65C613.58,150,615.06,157.85,614.87,166.07Z" transform="translate(27.84)"/><path class="cls-32" d="M819,1240c-19.08,0-31.52-.87-40.33-2.81a35.15,35.15,0,0,1-23-16.3c-8.92-15-5.09-33.21-3.51-39a142.49,142.49,0,0,1-2.62-15.31c-4.57-21-16.55-58.54-34.06-74.91a241.93,241.93,0,0,1-44.59,4.13,267.05,267.05,0,0,1-54.06-5.7c-5.46,7.39-10.78,17.72-15.61,30.38l-.57,2c-1.21,4.33-6.25,23.68-13.83,53.16q-.57,3.21-1.26,6.26c1.58,5.81,5.38,24-3.53,38.95a35.16,35.16,0,0,1-23,16.3c-8.81,1.94-21.25,2.81-40.33,2.81-14.22,0-31-.47-50.43-1l-1.39,0c-12.33-.35-25.7-.72-40.06-1-1.3.11-2.6.13-3.42.13-6.37,0-18.36-1.25-27.09-9.66a28.64,28.64,0,0,1-5.28-6.9l-.35-.09-3.59-1.54-.92-.56c-11.54-7.14-20.29-23.2-14.63-42.92a237.2,237.2,0,0,1-11.22-34.43L357,1127.69a320.21,320.21,0,0,0-33.75-23.47,188.85,188.85,0,0,1-21.63,1.25,172.57,172.57,0,0,1-39.72-4.5,314.53,314.53,0,0,0-47.11,34.11l-1.61,6.82a236.79,236.79,0,0,1-11.23,34.46c5.66,19.72-3.08,35.79-14.63,42.92l-.91.56-3.59,1.54-1,.27c-16.82,4.4-38.16,5.32-53.09,5.32-10.22,0-17.93-.43-19.71-.54-34-1.47-43-23.63-43-35.16,0-14.87,11.12-27.32,22.53-36.18-.42-21.16.33-37.17.34-37.33l1.29-27.11,7.44,2.6,0-.22c.21-1.59.44-3.19.68-4.78H96.84c-63.59-.46-86.58-63.26-87.53-65.93l-2.62-7.56,3.12-7.24c19.33-44.84,39.15-85,59-119.41a217.31,217.31,0,0,1-19.32-19.16L41,870.46l-7.47-10.53c-2.5-3.53-10.3-14.6-17.62-25.34C-12.55,824.2-24,801.3-26.39,788.26c-4.34-16.92,1.85-32.61,7.82-42.81-1.24-15.08,11-29.07,21.58-38.16l1-.84,4-2.36,1.18-.44a34.42,34.42,0,0,1,12.1-2.18c1,0,2,0,2.95.12L12.6,678a196.62,196.62,0,0,1,21.76-10.16c4.1-16.22,13.26-31.39,27.34-45.26a416.7,416.7,0,0,1,1.21-48.25c1.41-39.76,6-67.94,13.51-83.75l.41-.86L78.6,487l.51-.59c2.25-7.63,4.72-15.12,7.35-22.36C61,332,81.93,296,92.18,286.7l8.64-7.87L112,282.27c37.29,11.45,72.23,40,96.66,64a353.86,353.86,0,0,1,85.47-10.42c38.17,0,74.62,6.21,108.47,18.47,30.5-27.17,74.54-59.62,121.85-72.23l9.64-2.56,8,6c5.37,4,13.91,13.8,18.64,36.54a113.68,113.68,0,0,1,28-4.86c4.86-6.6,13-14.13,26.54-18.73l.47-.16,1.76-.47.48-.09c11-2.12,21.46-5.62,25.23-7.54l8.69-12.62,15.7,7.55a32.45,32.45,0,0,1,14.53,14.52c24.87-1.35,44.48-6.53,52.54-14.12l25.25-23.75,8.41,33.61c.21.81.53,2.2.86,4l42.58-12.15L787.9,321.86c8.58-.27,18.28-.89,29-1.83l24.67-2.18-2.67,24.61a35,35,0,0,1-2.4,9l1.37,1.08c.84,0,1.68-.06,2.54-.06,19.62,0,43.76,9.41,52.65,35.82l.18.53.48,1.91.09.5c.11.63,12.71,67.1,64.53,124.87,4.9,5,18.78,21.13,13.45,39.31-1.8,6.16-7.35,17-24.25,21.41a66.58,66.58,0,0,1-19.76,3.78c27.07,14,41.82,31.24,43.82,33.67l.3.35.27.38c10.78,15,5.18,26.44,2.27,30.67a22.19,22.19,0,0,1-1.51,2,106.08,106.08,0,0,1,9.29,21,94.94,94.94,0,0,1,24.12-3.51c8.54,0,16,1.63,22.06,4.83a32.82,32.82,0,0,1,15.84,18.22c4.8,10.54,7,25.32,1,39,6.7,14.42,14.58,39.09,4.24,61.56-2.36,6-12.53,24.74-48.78,33a65.58,65.58,0,0,1-20.7,3.52c-1.35,0-2.69,0-4-.15L945.65,852l-2.41-2.84q-5.82,4.95-11.8,9.49c20.26,39,40,85.24,58.75,137.82l2.6,7.28-3,7.12c-1.1,2.55-26.59,60.14-86,60.14-1.69,0-3.42,0-5.18-.14l-8.14-.47q2.31,8.55,4.23,17.06l2.34.7,2.72,10.73c1.83,7.15,7.35,29.44,10,46.63,23.35,15.24,39,37.73,40.53,58.81a29.85,29.85,0,0,1-8.85,24.06c-8.3,8-19.42,9.66-27.29,9.66-1.54,0-2.84-.07-3.77-.14-13.76.34-27.17.71-39.52,1.06l-1.4,0C850,1239.51,833.2,1240,819,1240ZM28.64,702.22a44.25,44.25,0,0,1,4.88,1.28c-.21-1-.4-2-.57-3.12Q30.78,701.3,28.64,702.22Z" transform="translate(27.84)"/><path class="cls-33" d="M506.61,1078.66s-39.21-76.18-101.87-23.19c0,0-25.33,37.06-65.13,4.94,0,0-43.63-51-123.81-17,0,0-95,45.09-151.69-35.94,0,0,119.69-197.26,147.65-363.06,0,0,62.48-71.29,149.69-33.36C361.45,611,470.8,736.4,506.61,1078.66Z" transform="translate(27.84)"/><path class="cls-34" d="M507.3,1084.47a6,6,0,0,1-3-.4,6.28,6.28,0,0,1-3-2.74l-.15-.27-.19-.37-.44-.76-.9-1.55-1.93-3.07c-1.35-2-2.74-4-4.23-6a90.46,90.46,0,0,0-9.65-10.82c-6.95-6.61-15-12-23.83-14.43a44.26,44.26,0,0,0-27,.93c-8.85,3.07-17.16,8.28-24.68,14.6l1-1.09a53.46,53.46,0,0,1-15.41,14,43.36,43.36,0,0,1-20,6.24,45.59,45.59,0,0,1-20.44-3.82,70.62,70.62,0,0,1-17-10.48l-.27-.22-.42-.45c-7.63-8.18-18.28-15.1-29.18-19.68a96.19,96.19,0,0,0-35-7.41,118.44,118.44,0,0,0-35.93,4.79,160.44,160.44,0,0,0-17.25,6,143.17,143.17,0,0,1-18.41,6.57c-24.84,7.07-51.83,8.93-77.2,1.57-25.44-7.14-47.17-24.58-61.77-45.91l-1.44-2.11,1.3-2.18c16.77-28,32.43-56.85,47.33-86s28.87-58.8,41.86-88.85S174.7,770,185,738.89s18.72-62.73,24.37-94.9l.13-.75.45-.47A150.36,150.36,0,0,1,242.53,617a142.16,142.16,0,0,1,38.36-15.73,123.76,123.76,0,0,1,41.36-2.78,138,138,0,0,1,39.94,10.8l.43.19.23.3c13,16.42,23.62,34.19,33.37,52.45,5.06,9,9.32,18.45,14,27.65,4.2,9.45,8.54,18.82,12.58,28.32,16.14,38,28.91,77.4,39.87,117.17,11.32,39.7,19.46,80.19,27.07,120.71,3.44,20.33,6.39,40.75,9.59,61.11l7.27,61.43Zm-1.43-11.69-7-55.48c-3.35-20.34-6.45-40.72-10.05-61-7.91-40.44-16.34-80.83-27.94-120.38-11.24-39.62-24.28-78.79-40.64-116.58-4.1-9.43-8.5-18.74-12.74-28.11-4.75-9.12-9.06-18.47-14.15-27.4-9.78-18-20.57-35.77-33.31-51.56l.66.48a134.49,134.49,0,0,0-38.87-10.21,119.48,119.48,0,0,0-39.92,3,137.4,137.4,0,0,0-37,15.51,145.64,145.64,0,0,0-31.29,25l.58-1.22c-5.47,32.53-13.85,64.47-23.84,95.83s-21.77,62.13-34.53,92.45-26.64,60.16-41.39,89.56-30.21,58.4-47,86.85l-.14-4.3c14,20.06,34.18,35.81,57.68,42.21,23.42,6.59,48.79,4.69,72.25-2.22a135.5,135.5,0,0,0,17.18-6.3,166.76,166.76,0,0,1,18.44-6.58,127.71,127.71,0,0,1,38.8-5.43c26.45.49,52.7,10.43,71.87,30.16l-.68-.66c9,7.26,19.72,12.44,30.34,11.72a32.49,32.49,0,0,0,15.07-4.85,43.61,43.61,0,0,0,11.93-10.87l.5-.67.49-.42a90.57,90.57,0,0,1,28.12-16.83,55.75,55.75,0,0,1,33.77-1.35c11.12,3.07,20.74,9.47,28.72,16.94a102.26,102.26,0,0,1,11,12.12c1.67,2.14,3.25,4.35,4.77,6.61l2.2,3.45,1.06,1.78.53.91.26.48s.13.24.09.16a5.67,5.67,0,0,0-2.93-2.53A5.46,5.46,0,0,0,505.87,1072.78Z" transform="translate(27.84)"/><path class="cls-33" d="M389.28,1068.82S412.37,963.73,363.71,816" transform="translate(27.84)"/><path class="cls-34" d="M383.12,1067.47c4.27-20,6.1-41.45,6.83-62.49a558.58,558.58,0,0,0-1.79-63.61c-2.13-21.14-4.73-42.33-9.08-63.21-1.77-10.53-4.6-20.82-6.91-31.25-2.57-10.37-5.65-20.6-8.46-30.92,3.31,10.16,6.9,20.25,10,30.5,2.82,10.31,6.17,20.52,8.47,31,5.4,20.76,9.06,41.93,12.26,63.19a564.65,564.65,0,0,1,5,64.38c.27,21.67-.38,43-4,65.12Z" transform="translate(27.84)"/><path class="cls-35" d="M207.9,764.63s-76.77,12.78-179.41,250.91c0,0,18.12,52,68.49,52.38C97,1067.92,101.41,895.38,207.9,764.63Z" transform="translate(27.84)"/><path class="cls-34" d="M102.78,1073.91l-5.84,0c-53.95-.38-73.88-55.8-74.08-56.36l-.76-2.2.92-2.12c102.74-238.37,180.64-253.88,183.9-254.43l15.55-2.59-9.95,12.22c-104,127.69-109.54,298-109.59,299.69Zm-67.86-58.24c3.68,8.91,19.92,42.55,56.42,46,1.93-30.11,15-166,95.63-279.39C157.76,803.33,101.94,860.86,34.92,1015.67Z" transform="translate(27.84)"/><path class="cls-36" d="M490.26,1035.44s44-73.51,103.15-16.61c0,0,22.9,38.61,64.68,9.11,0,0,46.82-48.11,124.65-9,0,0,91.89,51.08,153.68-26.14,0,0-106.77-204.53-124-371.78,0,0-57.78-75.15-147.24-42.89C665.15,578.09,548,696.18,490.26,1035.44Z" transform="translate(27.84)"/><path class="cls-37" d="M491.3,1030a5.18,5.18,0,0,0-2.7,0,5.26,5.26,0,0,0-2.86,2.16l.1-.15.29-.46.58-.87,1.16-1.7,2.41-3.29c1.66-2.14,3.37-4.24,5.17-6.27a101.92,101.92,0,0,1,11.69-11.34c8.41-6.92,18.36-12.66,29.57-15a55.28,55.28,0,0,1,33.36,3.47,90.43,90.43,0,0,1,26.87,18.51l.43.42.41.65A44,44,0,0,0,609.12,1028a32.94,32.94,0,0,0,14.9,5.88c10.69,1.4,21.79-3.14,31.3-9.84l-.68.58c20.28-18.36,47-26.6,73.38-25.41a127.92,127.92,0,0,1,38.27,7.88,168.19,168.19,0,0,1,17.93,7.73,136.8,136.8,0,0,0,16.79,7.4c23,8.41,48.27,11.93,72.14,6.83,23.93-4.9,45.09-19.38,60.42-38.54l-.38,4c-14.9-29.45-28.45-59.37-41.31-89.66s-24.71-60.95-35.57-92-20.48-62.54-28.54-94.45S813.48,654,810.11,621.21l.46,1.17a145.8,145.8,0,0,0-29.66-27,137.46,137.46,0,0,0-36-17.86A119.55,119.55,0,0,0,705.21,572a134.19,134.19,0,0,0-39.48,7.71l.64-.4c-13.74,15-25.64,32-36.55,49.34-5.66,8.59-10.56,17.65-15.88,26.46-4.83,9.08-9.81,18.08-14.51,27.24-18.75,36.67-34.27,74.93-48,113.75-14.1,38.73-25.1,78.5-35.58,118.36-4.89,20-9.29,40.16-13.93,60.24Zm-2,10.74,1-5.34,11.22-60.83c4.5-20.12,8.76-40.3,13.51-60.36,10.21-40,20.94-79.83,34.79-118.72,13.5-39,28.79-77.42,47.34-114.34,4.65-9.22,9.59-18.3,14.38-27.45,5.28-8.88,10.14-18,15.76-26.69,10.91-17.59,22.6-34.64,36.66-50.17l.24-.27.4-.14a138.06,138.06,0,0,1,40.52-8.2,123.55,123.55,0,0,1,41,5.43,141.92,141.92,0,0,1,37.21,18.15,149.9,149.9,0,0,1,30.87,27.73l.39.47.08.69c3.56,32.49,10.06,64.62,18.2,96.3s18.08,62.93,29,93.78S885,872.13,898,902.2s26.76,59.85,41.69,88.87l1.08,2.1L939.27,995c-15.91,20.3-38.65,36.26-64.43,41.73-25.71,5.69-52.47,2.11-76.76-6.53a145.47,145.47,0,0,1-17.9-7.72,160,160,0,0,0-16.87-7.13,119.16,119.16,0,0,0-35.66-7.11c-24-1.15-49,7.28-66.1,23l-.47.43-.21.15a69.68,69.68,0,0,1-17.58,9.31,45.1,45.1,0,0,1-20.47,2.48,43,43,0,0,1-19.41-7.45A53.2,53.2,0,0,1,589,1021.42l.85,1.06c-7.12-6.81-15.12-12.58-23.82-16.24a44.65,44.65,0,0,0-27.13-2.69c-9,1.92-17.5,6.77-24.89,13a91.11,91.11,0,0,0-10.38,10.23c-1.61,1.83-3.14,3.74-4.62,5.68l-2.14,3-1,1.49-.48.74-.22.36-.16.25a5.85,5.85,0,0,1-3,2.37A5.62,5.62,0,0,1,489.28,1040.78Z" transform="translate(27.84)"/><path class="cls-37" d="M602.52,1034c-2.21-22.13-1.56-43.52,0-65.09a564,564,0,0,1,8.9-63.9c4.49-21,9.45-41.9,16.1-62.28,2.94-10.31,6.9-20.28,10.35-30.41,3.7-10,7.9-19.89,11.82-29.82-3.49,10.1-7.26,20.11-10.51,30.27-3,10.26-6.52,20.34-9,30.73C624.47,864,620.45,885,616.9,906a560.73,560.73,0,0,0-6.07,63.4c-.69,21.08-.31,42.62,2.61,62.95Z" transform="translate(27.84)"/><path class="cls-38" d="M808.52,741.21s75.79,17.68,162.93,261.9c0,0-21.42,50.74-71.71,47.88C899.74,1051,906.39,878.52,808.52,741.21Z" transform="translate(27.84)"/><path class="cls-37" d="M903.79,1056.62c-1.43,0-2.88,0-4.36-.12l-5.42-.31.21-5.41c.06-1.71,5.4-172.26-90.2-306.36l-8.48-11.9,14.24,3.32c3.21.75,79.73,21.16,166.87,265.42l.73,2-.84,2C976.32,1005.79,954.25,1056.62,903.79,1056.62ZM826.55,758.24c74.86,119.29,78.83,257.93,78.79,287.33,37.42-.88,56-34.22,60.15-42.72C907.13,840.06,853.92,779.88,826.55,758.24Z" transform="translate(27.84)"/><path class="cls-38" d="M650.43,467S445.54,688.32,398.16,920c0,0,4.29,148,106.15,185.44C504.31,1105.46,513.43,680,650.43,467Z" transform="translate(27.84)"/><path class="cls-37" d="M511.24,1115.62l-9.4-3.46C396.66,1073.44,391.2,926.46,391,920.22l0-.82.16-.81c47.23-231,252-454.21,254-456.44l11.25,8.71c-134.33,208.83-144.89,630.52-145,634.76Zm-105.91-195c.54,11.09,8.5,135.17,92.19,174.32C499.84,1034.77,516.08,728.2,610,526.3,547.18,605.78,438.15,761.5,405.33,920.59Z" transform="translate(27.84)"/><path class="cls-35" d="M337.17,685.06S452.79,790.8,494.63,981.18c0,0,1,76.51-48.72,80C445.91,1061.14,408.57,804.56,337.17,685.06Z" transform="translate(27.84)"/><path class="cls-34" d="M440.52,1067.83l-.84-5.78c-.37-2.55-38-256.72-107.92-373.76l-22-36.86,31.7,29C342.6,681.49,459,789.7,500.79,979.83l.14,1.26c.05,3.38.45,82.51-54.58,86.33Zm-76.1-343.38C416.56,841.2,445.65,1018,451.22,1054c35.45-8,37-65.61,37.11-72.15C460.94,857.91,401.34,769.7,364.42,724.45Z" transform="translate(27.84)"/><path class="cls-34" d="M354.05,1057.17c-2.6-19.73-6.2-39.69-10.32-59.37s-9-39.31-14.49-58.72C318.16,900.3,304.13,862.2,285,826.46c21,34.7,37.11,72.28,50.29,110.73q9.81,28.89,17.67,58.42c5.2,19.73,9.85,39.46,13.59,59.73Z" transform="translate(27.84)"/><path class="cls-34" d="M178.36,1018.41A422.51,422.51,0,0,0,189,972.35c2.77-15.63,4.72-31.42,5.94-47.27a404.53,404.53,0,0,0,1-47.75c-.33-16-2.4-31.83-4.84-47.66,3.47,15.61,6.6,31.42,8,47.44a410.82,410.82,0,0,1,2.12,48.24c-.18,16.12-1.1,32.26-2.88,48.33a429.14,429.14,0,0,1-7.87,48.13Z" transform="translate(27.84)"/><path class="cls-39" d="M687.22,739.72s38.39-14.8,103.91,15.85c0,0,74,36.15,147.91-18,0,0,36.36,11.35,31.75,52.55,0,0-81.26,119.2-196.22,83.89" transform="translate(27.84)"/><path class="cls-40" d="M816.89,886.46a149.14,149.14,0,0,1-44.06-6.73l3.49-11.38C879.57,900,956.17,800.14,965,788c2.52-29-17.64-40.46-25.1-43.69-75,52.9-148.29,18.15-151.41,16.63-61.92-29-98.82-15.77-99.18-15.63l-4.26-11.12c1.67-.64,41.53-15.36,108.59,16,3,1.45,71.86,33.88,141.86-17.38L938,731l2.87.9c.41.12,41,13.34,35.89,58.9l-.16,1.47-.84,1.22C975,794.56,911.07,886.45,816.89,886.46Z" transform="translate(27.84)"/><path class="cls-41" d="M908.74,741.89s-.28,36.13,38.88,82.25l23.51-20.83L944,727.1Z" transform="translate(27.84)"/><path class="cls-42" d="M947.1,831.49l-3.42-4c-39.94-47.05-40.12-84.08-40.1-85.63l0-3.4L947,720.22l30.16,84.64Zm-33-86.28c1,9.31,6.38,37.3,34.05,71.52l16.9-15L940.93,734Z" transform="translate(27.84)"/><path class="cls-41" d="M962.24,799c11.77,12.39,32.92,4,32.92,4,31.39-6.8,36.35-22,36.35-22,11.12-23.46-8.9-54.57-8.9-54.57,12.62-13.52,3.43-31,3.43-31-5.52-19.07-42-6.95-42-6.95a36.06,36.06,0,0,0-21.27,17c-20.89-.76-24.16,7-24.16,7-7.83,12.33,3.68,46.05,3.68,46.05S948.93,785,962.24,799Z" transform="translate(27.84)"/><path class="cls-42" d="M979.94,810.94c-7.16,0-15.24-1.86-21.44-8.39-14.08-14.83-20.91-41.7-21.2-42.84-1.13-3.26-11.8-35.66-3.19-49.81,1.29-2.47,6.7-9.66,25.79-9.68a41.68,41.68,0,0,1,22.7-16.71c2.4-.8,25.32-8.08,39.11-.85a18.32,18.32,0,0,1,9.15,10.85c1.48,3.08,8.34,19.18-2,33.37,5,9.07,17.39,35,7.28,56.28-.35,1.24-6.54,17.52-39.53,24.79A51.24,51.24,0,0,1,979.94,810.94ZM960,710.53c-13.78,0-16.73,4.23-16.76,4.27-4.69,7.44-.44,29,4,42,.18.67,6.59,25.81,18.79,38.66h0c9.18,9.67,27.09,2.8,27.28,2.74l.8-.24c27.49-6,32.52-18.57,32.56-18.69,10-21.06-8.19-49.79-8.37-50.08l-2.16-3.37,2.73-2.93c9.9-10.62,2.93-24.5,2.63-25.09l-.38-.94a7.85,7.85,0,0,0-4.18-5.05c-8.44-4.44-25.39-.38-31.21,1.55a30.92,30.92,0,0,0-18.27,14.35l-1.48,3-3.34-.09C961.68,710.55,960.79,710.53,960,710.53Z" transform="translate(27.84)"/><path class="cls-41" d="M962.79,705.43s17.54-2.71,24.8,4.05c0,0,7.26,5.33,9.87,34.09,0,0-3,14.17-21.81,6.3a60,60,0,0,1-12-22.6" transform="translate(27.84)"/><path class="cls-42" d="M985.83,757.42a31.86,31.86,0,0,1-12.17-2.79l-1-.42-.75-.81a65.1,65.1,0,0,1-13.25-24.7l9.92-2.86a56.81,56.81,0,0,0,10.17,19.71c4.6,1.75,8.26,2,10.64.78a6.41,6.41,0,0,0,2.85-3.29c-2.31-24-7.9-29.57-8-29.62-4.29-4-15.77-3.66-20.68-2.9L962,700.32c2-.31,20.26-2.85,29.11,5.38,1.07.74,8.81,7.83,11.49,37.4l.07.77-.16.76a16.83,16.83,0,0,1-8.34,10.84A17.72,17.72,0,0,1,985.83,757.42Z" transform="translate(27.84)"/><path class="cls-39" d="M531.89,953.85s-57.72,92.21-156.06,97.84c0,0-32,.7,5.19,16.67,0,0,112,35.88,201.53-74" transform="translate(27.84)"/><path class="cls-40" d="M424.65,1079.66c-27.09,0-45-5.48-45.45-5.63-14.49-6.19-23.48-11.73-22-19.33,1.38-7.1,10.82-8.79,18.5-9,93.8-5.38,150.58-94.15,151.14-95l10.1,6.31c-2.42,3.88-60.51,94.89-160.77,100.63-1,0-2.13.11-3.18.22a98.26,98.26,0,0,0,10.38,5c3.88,1.21,108.81,33,194.56-72.26l9.24,7.52C531.68,1066.26,467,1079.66,424.65,1079.66Z" transform="translate(27.84)"/><path class="cls-39" d="M786.11,703s9.94,77.28,42,182.39c0,0,25.65,93.11-20.41,140.49,0,0-83.71,85.33-227.75,32.59,0,0-78.2-3.75-94.45-89.43,0,0-11.12-34.37,14.17-87.06,0,0,33.37-53.43,43.76-130.72,0,0,2.35-94.27,45.64-102.81,0,0,97.5-24.39,173.72,13C762.78,661.37,781.47,669.53,786.11,703Z" transform="translate(27.84)"/><path class="cls-40" d="M670.9,1081.42c-27.3,0-58.17-4.75-92.24-17.13-9.48-.86-83.11-10.29-99-94.2-.29-.77-11.36-36.53,14.66-90.74.64-1.1,33.15-53.94,43.23-128.93.05-3.41,3-98.5,50.39-107.86,3.78-1,100.21-24.42,177.49,13.46.65.28,21.57,9.81,26.6,46.11v.06c.1.77,10.27,78.06,41.79,181.42,1.13,4.09,26.05,97.1-21.83,146.37C811.29,1030.67,760.15,1081.42,670.9,1081.42Zm-9.64-434.8a329,329,0,0,0-70.76,7.55c-31.91,6.31-40.49,72.29-41.12,97.18-10.49,78.32-43.28,131.5-44.67,133.73-23.48,49-13.65,81.77-13.55,82.1,15.33,80.57,86.07,85.15,89.08,85.3l1.75.36c138.49,50.7,220.65-30.35,221.46-31.18,43.09-44.34,19.16-133.84,18.91-134.74-31.5-103.28-41.87-181-42.16-183.17-4.05-29.24-19.23-36.66-19.88-37C728.25,651.07,692,646.62,661.26,646.62Z" transform="translate(27.84)"/><path class="cls-43" d="M660.19,750.92s16.23-22.1,63-17.23c0,0,43.93,7,47.85,36.91,0,0,9.85,65.88,29.84,127.87,0,0,22.65,78.08-24.32,119.08,0,0-82.27,52.76-149-5.86,0,0-30.54-27.6-20.15-64.07,0,0,15.85-41.12,20.91-66.16,0,0,8-46.63,10.52-86.35C638.85,795.11,643.81,762.45,660.19,750.92Z" transform="translate(27.84)"/><path class="cls-39" d="M631.49,773.71c-3.32,17-15.17,54.86-37.58,73.07,0,0-18.72,25.83-64.92,21.65,0,0-80.4-13.87-62.56-66.14,0,0,24.51-18.62,48.23-68.26,0,0,17.59-45.82,47.61-46,0,0,26.13-1.85,47,25.1" transform="translate(27.84)"/><path class="cls-40" d="M631.49,773.71a166.53,166.53,0,0,1-10.08,41,126.75,126.75,0,0,1-9.47,19.44c-3.84,6.19-8.14,12.49-14.18,17.34l1.09-1.15a62.94,62.94,0,0,1-15.36,12.91,79.43,79.43,0,0,1-17.58,7.78,93.79,93.79,0,0,1-18.69,3.41,118.77,118.77,0,0,1-18.77-.1l-.24,0-.24,0a146.46,146.46,0,0,1-26.23-7.71,100.61,100.61,0,0,1-24.25-13.43c-7.43-5.79-14.22-13.58-17.51-23.35s-2.27-20.39.81-29.44l.55-1.6,1.49-1.22a114.37,114.37,0,0,0,13.79-14.06,203.28,203.28,0,0,0,12.3-16.3,276.23,276.23,0,0,0,20.36-35.72l-.18.43a119,119,0,0,1,16.47-28.53c6.92-8.5,15.74-17,28-20.16a36.36,36.36,0,0,1,9.06-.48,44.07,44.07,0,0,1,8.68,1.44,60,60,0,0,1,15.42,6.4,65.67,65.67,0,0,1,22.52,22.52A70.38,70.38,0,0,0,584,696.19c-9.31-3.3-19.48-4.46-27.5-1.45-8.16,2.19-15.66,8.46-21.62,16a108.07,108.07,0,0,0-14.67,25.38l-.13.32-.05.12a288,288,0,0,1-21.27,37.29c-4.07,5.94-8.36,11.73-13,17.28A122.69,122.69,0,0,1,470,807l2-2.81c-2.47,7.38-3.06,15-.79,21.84s7.3,12.85,13.54,17.72a89.12,89.12,0,0,0,21.34,11.76,135.7,135.7,0,0,0,23.84,7l-.47-.06a106.23,106.23,0,0,0,16.73.09,81.52,81.52,0,0,0,16.21-2.94,67.28,67.28,0,0,0,14.83-6.56c4.43-2.7,9.17-6.34,11.67-9.88l.41-.59.68-.57a94.49,94.49,0,0,0,13.73-13.57,124.67,124.67,0,0,0,11.31-16.75A188.41,188.41,0,0,0,631.49,773.71Z" transform="translate(27.84)"/><path class="cls-39" d="M508.48,968.08s-45,80-53,170.08c0,0-13.24,62.17,5.29,64.71,0,0,7.95,7.61,33.1-2.54,0,0,14.56,18.17,55.6,5.28,0,0,14.28-4.64,18.54-42.07,0,0,13.23-74.54,45-98.64" transform="translate(27.84)"/><path class="cls-40" d="M522.58,1216.16c-15.9,0-25.39-5.36-30-9-20.38,7.39-30.42,3.67-34.26,1.22a14.25,14.25,0,0,1-8.07-5.8c-10.65-15.15-2.36-57.39-.59-65.71,7.86-89.6,51.73-168.44,53.59-171.75L513.68,971c-.45.79-44.48,80-52.22,167.68-4,19.29-7.07,49.07-1.42,57.11.75,1.06,1.3,1.14,1.59,1.18l1.92.26,1.39,1.33h0c.09,0,7,4.21,26.75-3.75l4.11-1.66,2.77,3.46c.45.54,13.14,14.65,49.16,3.32h0c-.07,0,10.8-5.31,14.41-37.07.61-3.5,14.08-77.48,47.32-102.71l7.21,9.49c-29.58,22.44-42.62,94.22-42.75,94.94-4.5,39.7-20.72,46.09-22.56,46.69C540,1214.83,530.52,1216.16,522.58,1216.16Z" transform="translate(27.84)"/><path class="cls-39" d="M829.24,976s45,72.06,53,162.14c0,0,13.23,62.17-5.3,64.71,0,0-7.94,7.61-33.1-2.54,0,0-14.56,18.17-55.6,5.28,0,0-14.28-4.64-18.53-42.07,0,0-13.24-66.6-45-90.71" transform="translate(27.84)"/><path class="cls-40" d="M815.15,1216.17c-7.93,0-17.44-1.34-28.73-4.88-1.89-.62-18.12-7-22.67-47.08,0-.15-13.11-64.18-42.69-86.63l7.2-9.49c33.19,25.18,46.7,91.48,47.25,94.28,3.71,32.45,14.69,37.63,14.8,37.67,35.72,11.2,48.39-2.9,48.91-3.51l2.79-3.24,4,1.52c20.2,8.16,27,3.55,27,3.51l1.4-1.34h1.62c.29,0,.84-.12,1.59-1.19,5.66-8,2.64-37.82-1.31-56.38-7.83-88.24-51.74-159.52-52.18-160.23l10.11-6.3c1.86,3,45.85,74.31,53.83,164.77,1.66,7.6,10,49.84-.7,65a14.26,14.26,0,0,1-8.06,5.8c-3.85,2.46-13.88,6.18-34.26-1.22C840.53,1210.8,831,1216.17,815.15,1216.17Z" transform="translate(27.84)"/><path class="cls-41" d="M775.6,1187.1s-15.6-60.86-18.12-69.87c0,0,74.66-28.07,123.35-13.56,0,0,12.66,49.69,10.56,59.61C891.39,1163.28,828.76,1151.44,775.6,1187.1Z" transform="translate(27.84)"/><path class="cls-42" d="M772.41,1195.45l-1.81-7.08c-.16-.6-15.62-60.9-18.09-69.75l-1.28-4.55,4.43-1.67c3.12-1.17,76.86-28.53,126.64-13.68l2.81.84.72,2.84c2.17,8.48,12.84,51.39,10.61,61.95l-1,4.93-5-.93c-.62-.12-61.28-11-112,23Zm-8.7-74.94c3.45,13,11.52,44.4,15.12,58.42,43.66-26.24,91-23.56,107.53-21.59-.85-10.51-5.66-32.88-9.8-49.5C836.76,1097.55,779.85,1115.05,763.71,1120.51Z" transform="translate(27.84)"/><path class="cls-41" d="M771.1,1186.7s-7.81,27.07,11.78,31.4,64.24,1.63,128.47.27c0,0,20.47,2.21,19.4-12.67-1.52-21.17-27.76-53.34-78.25-60.58C852.5,1145.12,783.71,1132.55,771.1,1186.7Z" transform="translate(27.84)"/><path class="cls-42" d="M819,1225.62c-16.31,0-28.87-.63-37.23-2.48a20.65,20.65,0,0,1-13.72-9.61c-6.43-10.82-2.58-25.84-1.94-28.12,13.65-58.12,86.59-45.51,87.33-45.37,54.14,7.75,80.86,42.86,82.47,65.29.46,6.46-2.19,10.47-4.5,12.7-7,6.72-19.23,5.62-20.61,5.47-14.07.34-27.77.72-40.38,1.08C850.58,1225.13,833.34,1225.62,819,1225.62Zm16.26-76.69c-19.84,0-51.33,5.48-59.12,39l-.06.24c-1,3.53-2.8,14,.86,20.16a10.33,10.33,0,0,0,7.07,4.79c14.45,3.2,44.5,2.36,86.12,1.19,12.63-.35,26.36-.74,41.12-1,2.9.25,10,.27,13-2.62.68-.66,1.55-1.83,1.36-4.52-1.32-18.44-25.71-49-73.83-55.85A101.33,101.33,0,0,0,835.25,1148.93Z" transform="translate(27.84)"/><path class="cls-41" d="M563.72,1187.1s15.6-60.86,18.13-69.87c0,0-74.66-28.07-123.36-13.56,0,0-12.65,49.69-10.56,59.61C447.93,1163.28,510.57,1151.44,563.72,1187.1Z" transform="translate(27.84)"/><path class="cls-42" d="M566.91,1195.45l-6.06-4.07c-50.69-34-111.35-23.14-112-23l-5,.93-1.05-4.94c-2.23-10.55,8.45-53.46,10.61-61.94l.72-2.84,2.81-.84c49.76-14.81,123.53,12.51,126.65,13.68l4.43,1.67-1.28,4.56c-2.48,8.84-17.94,69.14-18.09,69.74Zm-93.35-39.28c22.38,0,55.61,3.94,86.93,22.75,3.6-14,11.67-45.4,15.12-58.41-16.15-5.46-73.09-23-112.84-12.67-4.14,16.62-8.95,39-9.81,49.5A174.8,174.8,0,0,1,473.56,1156.17Z" transform="translate(27.84)"/><path class="cls-41" d="M566.62,1186.7s7.81,27.07-11.77,31.4-64.25,1.63-128.47.27c0,0-20.47,2.21-19.4-12.67,1.51-21.17,27.75-53.34,78.24-60.58C485.22,1145.12,554,1132.55,566.62,1186.7Z" transform="translate(27.84)"/><path class="cls-42" d="M518.74,1225.62c-14.35,0-31.6-.49-51.42-1-12.61-.36-26.32-.74-41.05-1.06-.72.14-13,1.22-19.95-5.49-2.3-2.23-5-6.24-4.5-12.7,1.62-22.43,28.33-57.54,82.67-65.33.53-.09,73.48-12.71,87.13,45.41.64,2.28,4.49,17.3-1.94,28.12a20.62,20.62,0,0,1-13.72,9.61C547.61,1225,535,1225.62,518.74,1225.62Zm-92.9-12.38c15.41.28,29.14.67,41.76,1,41.6,1.16,71.67,2,86.13-1.19a10.28,10.28,0,0,0,7.06-4.79c3.67-6.13,1.87-16.63.87-20.16l-.07-.24c-11.37-48.81-72.83-38.19-75.44-37.69-48.32,6.93-72.7,37.44-74,55.88-.2,2.69.67,3.86,1.35,4.52C416.46,1213.48,423.56,1213.48,425.84,1213.24Z" transform="translate(27.84)"/><path class="cls-39" d="M792.16,409.06s11.38-30.9,43.21-36c0,0,29.66-4.34,38.4,21.65,0,0,12.42,71.52,69.67,135.16,0,0,22,22.13-2.12,27.49,0,0-30,14.1-76.36-19.25,0,0-43.24-36.11-47.5-103.28,0,0,8.8-10.61-3.68,2.55" transform="translate(27.84)"/><path class="cls-40" d="M923.71,566.3c-14.46,0-36-4.45-62.23-23.33-2.19-1.81-45.58-38.8-50-107.71l-2.07-2c7.36-7.75,10.41-11,15-6.94,3.81,3.36,1.81,7-.84,10.42,4.86,62.17,44.81,96.45,45.22,96.79,42.18,30.32,68.93,18.9,70.05,18.4l1.19-.4c3.72-.83,6.1-2.13,6.52-3.58,1-3.24-3.74-10.28-7.34-13.9-56.1-62.36-69.93-130.87-71.22-137.86-7.19-20.43-30.77-17.4-31.77-17.25-27.78,4.42-38.05,31-38.48,32.15L786.57,407c.51-1.4,13-34.24,47.86-39.8,12.07-1.75,36.82,1.35,45,25.63l.22.87c.13.71,12.89,70.69,68.23,132.21,2.1,2.1,13.4,14.21,10.11,25.43-1.18,4-4.72,9.32-14.8,11.72C941,563.93,934.25,566.3,923.71,566.3Z" transform="translate(27.84)"/><path class="cls-40" d="M781.56,409.87s53.93-28.14,68.64,28.38c0,0,35.3,87.85,64.87,107.32,0,0,16.89,10.59-18.18-4.18,0,0-25.37-15.1-42.92-39,0,0-37-72.69-63.45-69.49,0,0-26.73-12.81-9-23" transform="translate(27.84)"/><path class="cls-39" d="M947.8,663.29s-5,6.37-28.94-12.81c0,0,7.11-8.18-3.78-23.35,0,0,18.94-10.29-21.92-22.36,0,0-25.64-24.82-55.34-34.79,0,0-.13-82.18-25.18-135,0,0-45.09-77.53-155.28-81.73,0,0-159.2,33.4-165.65,203-8.81,5.17-21.38,16-25.37,25.33,0,0-12.07,17.58,21.28,14.29-9.21,8.92-28.59,27.68-20.43,44.07,0,0,10.23.9,37-14.57,0,0,6.94-5.39,5.38-1.23-3,8.1-19.82,20.34-22.78,38.3-2.14,13,15.45,5.87,30.08-4.19,16,31.48,49.25,56.3,49.25,56.3s24.42,23.55,86.46,40.19c0,0,53.17,9.41,72.77,30.57,0,0,16.09,3.61,34.53,15.2,0,0,34.88,27.3,72.72,5.69,0,0,20.45,14.41,33.85-.25,0,0,13.35-12.79,6.07-22.28,0,0-5.84-14,24.37-28.36,0,0,5,38.15,15.18-2.73,0,0-1-1.22,6.78-16,0,0,28.09,6.72,12-27.23,0,0-13.37-11.73-7.94-3.52C922.93,705.8,958.58,684.06,947.8,663.29Z" transform="translate(27.84)"/><path class="cls-40" d="M801.78,820.52c-25.51,0-44.44-14.5-45.54-15.36a117.47,117.47,0,0,0-32.18-14.09l-1.79-.41L721,789.31c-18-19.47-68.92-28.66-69.44-28.75-63.3-16.95-88.51-40.76-89.56-41.77-.78-.52-30.06-22.61-47.25-52.09-9.42,5.75-22.09,11.57-29.39,7-2.18-1.38-5.65-4.81-4.43-12.22,1.46-8.87,5.79-16.4,10.35-22.64-15.82,7.26-23.06,7.16-24.63,7l-3.32-.29-1.48-3c-7.38-14.81,2-29.86,11.67-40.78-6.71-.92-11.19-3.38-13.58-7.41-3.85-6.52-.17-13.53,1.12-15.64,4.61-10.19,16.41-20.36,24.82-25.9,8.42-169.47,168.62-205.05,170.25-205.39l.72-.15.73,0c112.18,4.27,158.29,81.39,160.2,84.67,22.58,47.57,25.54,116.08,25.93,133.79,25.77,9.81,47.43,29,52.5,33.7,19.27,5.85,28.27,12.14,29.14,20.3a11.63,11.63,0,0,1-2.54,8.43c5.06,9,4.74,16,3.41,20.48,11,8.27,16.21,9.5,17.9,9.65l4.72-6,4.24,8.17c9.35,18-7.34,35.29-18.43,44.17l.14.12.92.81.53,1.12c6.65,14,7.34,24,2.11,30.39-4.41,5.45-11.42,6.13-16.11,5.84-2,4.07-3.13,6.58-3.69,8l.05.05-.73,2.91c-3.69,14.77-7.39,23.82-15,23.4-1.91-.11-7.13-.41-10.34-13.09-14.06,8.27-14.59,15-14.44,16.84,6.9,10.61-1.33,23.16-7.49,29.07C858.92,823,842,818.45,832.41,813A66.73,66.73,0,0,1,801.78,820.52Zm-73.3-40.61a133.06,133.06,0,0,1,34.61,15.52c1.79,1.36,32.79,24.85,66.59,5.55l3.29-1.87,3.1,2.18c.65.45,16.36,11.18,26,.61.36-.37,9.56-9.68,5.74-14.65l-.76-1.34c-.83-2-7-19.75,27.3-36l7.4-3.51,1.06,8.11c.24,1.8.59,3.68,1,5.43.66-2,1.42-4.51,2.26-7.8.17-3.09,2.17-8.15,7.55-18.36l2.16-4.09,4.5,1.07c2.33.54,7.34.77,8.85-1.1.49-.6,2.57-4.22-3.11-16.66-.48-.42-1-.82-1.44-1.21l-3.44,2.1L918,709.09c-3-4.53-3.05-8.1-.16-10.62a6.06,6.06,0,0,1,6.72-1c7.28-5.42,20.34-16.7,19.26-27.21-7-.33-16.42-5.3-28.65-15.12l-4.83-3.88,4.06-4.67s3.6-5.22-4.12-16l-3.94-5.48,5.93-3.22a4.45,4.45,0,0,0,1.31-1.22h0c-.2,0-2.6-4.46-22.06-10.21l-1.4-.41L889,609c-.25-.24-25.08-24-53.1-33.42l-4-1.36V570c0-.81-.43-81.49-24.6-132.46-.2-.3-44.53-74-149.37-78.29-12.68,2.86-154.18,38.34-160.23,197.19l-.12,3.26-2.81,1.65c-8.51,5-19.69,15-22.92,22.55l-.56,1c-.82,1.24-1.25,3-1,3.39,0,0,2.52,3,16.83,1.61l17-1.68-12.28,11.88c-7.45,7.2-22.13,21.4-20.44,33.28,4.68-1.07,14.13-4.14,29.56-13,2.54-2,7.86-5.8,12.27-2.55,2,1.43,3.51,4.38,2,8.36-1.44,3.83-4.6,7.63-8.25,12-5.61,6.76-12.59,15.18-14.23,25.14,0,0,0,.06,0,.08,3.05-.37,10.32-2.9,20.84-10.14l5.61-3.85,3.08,6c15.19,29.82,47.19,54,47.51,54.24.79.69,25,23.26,84.44,39.2C655.87,749.23,707,758.47,728.48,779.91Z" transform="translate(27.84)"/><path class="cls-38" d="M485.14,545.74s54.6,62.62,183.05,66.59c0,0,56.13,6.61,98.5-33.84,0,0,9.22-15,23.74-2.56,0,0,36.13,19.2,56.87-3.53,0,0,11.51-112.2-58-175.7,0,0-132.23-31.75-240.52,0C548.81,396.7,491.35,469.89,485.14,545.74Z" transform="translate(27.84)"/><path class="cls-37" d="M677.76,617.92a93.1,93.1,0,0,1-10.18-.47c-128.77-4-184-65.69-186.34-68.32l-1.43-1.64.18-2.17c6.27-76.51,62.38-148.77,64.76-151.8l1-1.3,1.59-.47c108.36-31.77,241.85-.39,243.18-.06l1.3.31,1,.9c70.58,64.5,60.1,175.33,59.61,180l-.17,1.69-1.14,1.26c-23.18,25.4-61.49,5.48-63.11,4.62l-.94-.64c-3.29-2.81-6.27-4.05-9-3.61-4.14.65-6.92,4.91-6.94,5l-.84,1C737.11,613.87,696.44,617.92,677.76,617.92Zm-187.27-74c9.42,9.48,64.65,59.8,177.86,63.3,1,.1,54.38,5.76,94.36-32,1.43-2.06,6.09-7.91,13.73-9.11,5.67-.86,11.32,1,16.85,5.55,3.9,1.91,32.21,14.92,49-1.46,1-14.19,5.58-111.84-55.46-168.72-13.79-3.1-135.2-28.81-235-.24C544.41,411.14,496.93,476.7,490.49,543.87Z" transform="translate(27.84)"/><path class="cls-44" d="M921.41,755.27s5,30,15.18-10.88c0,0,7.16,15.09,14.94.31,0,0,11.77-25.9-4.34-59.85,0,0,11.12,4.59,16.55,12.8,0,0,11.16,2.72.39-18,0,0-5.06-26.25-29-45.44,0,0,31.6,8.14,20.71-7,0,0-21.87-26.61-62.73-38.68l-1.39-1.29a193.65,193.65,0,0,0-21.64,3s-8.17-29.08-27.47-.25c0,0-26-6.16-43.24,11.84,0,0-39-10.49-43,2.5,0,0-.15,7.27,16.58,11.46,0,0-29.2,1.09-57.86,24.85q-3.18,2.63-6.33,5.64s1.59,13.11,22.14,13.54c0,0-22.45,1-30.44,25.32,0,0-9.71,17.25-15.33,17.83l-5.62.59s1.67,9.38,10.93,13.31c0,0-5.8,9.21-11.44,11,0,0,5.44,7.59,18.52,7.86,0,0-10.27,15.51-17.09,24.82,10.9,6,24.46,13.5,36.77,24.85,0,0,43.73,30.92,58.7,34.68,0,0,38.8,14.35,72.92.34,0,0,22.28,15.56,41.32-18.23,0,0,6.79,12.41,12.19-28.14C902.34,773.92,914,786.92,921.41,755.27Z" transform="translate(27.84)"/><path class="cls-40" d="M815.18,832.41a130.4,130.4,0,0,1-41.34-6.87c-15-3.74-55.5-32.18-60.07-35.42-12.58-11.51-26.23-19-36.2-24.48l-5.94-3.26,4-5.47c3.63-4.95,8.3-11.76,11.81-17-6.92-2.18-11.39-6.12-13.27-8.74l-4.82-6.71,7.89-2.44c1.22-.38,2.94-1.92,4.56-3.73a26,26,0,0,1-8.15-13.81l-1.12-6.3,12-1.26c1.44-.8,6.64-7.62,10.48-14.35,3.82-11.19,10.31-18,16.72-22.23a20.64,20.64,0,0,1-8.87-13.47l-.36-2.95,2.15-2.06q3.32-3.18,6.66-5.93a118.51,118.51,0,0,1,43.29-22.92c-3.94-4-4.19-7.8-4.17-8.94l.27-1.62c4.83-15.63,33.95-10.5,47-7.34,14.94-13.4,34-12.8,42.29-11.73,6.88-9.2,13.64-13.11,20.46-12,7,1.12,11.25,7.36,13.47,12,5.45-.93,11.18-1.64,17.38-2.17l2.6-.22,2.33,2.14c41.27,12.62,63.36,39.07,64.29,40.2,5,7,3.89,11.53,2.09,14.16-2.15,3.13-6.1,4.48-10.76,4.77a90.37,90.37,0,0,1,18,35.29c3.85,7.55,7.43,16.73,2.84,22.58a10.11,10.11,0,0,1-10.29,3.28l-2.27-.56-.59-.89c5.95,26-2.08,44.24-2.51,45.18-3.53,6.73-7.74,10-12.65,10h-.24A10.85,10.85,0,0,1,939.5,756c-3.78,11.59-7.81,15.84-13.08,15.82a7.76,7.76,0,0,1-3.86-1.18c-3.1,6.52-6.94,10.31-11.59,11.5a12.61,12.61,0,0,1-3.88.35c-3.45,21-7.61,26.16-13,27.17a8.9,8.9,0,0,1-1.68.13c-7,10.7-15.3,17.19-24.57,19.3a30,30,0,0,1-19.43-2.26A95.88,95.88,0,0,1,815.18,832.41Zm-126-74c9.64,5.42,21.32,12.53,32.07,22.43,11.32,8,44.73,30.43,56.11,33.3,1,.32,37.73,13.53,69.21.61l3-1.24,2.66,1.87a18,18,0,0,0,13.13,2c7.11-1.7,13.7-7.86,19.59-18.31l5.27-9.35,2.2,4c1.13-3.67,2.58-10,4-20.67l1.71-12.83,8.64,9.65c.31.31,1,.77,1.25.65,0,0,4-1.28,7.58-16.69l6.75-28.8,4.92,29.17c0,.14.05.28.07.42A121.76,121.76,0,0,0,930.81,743l4-16.14,7.13,15a11.82,11.82,0,0,0,2.25,3.11,12.6,12.6,0,0,0,2-3c.27-.63,10.17-23.71-4.45-54.53l-6.61-13.95,14.27,5.9a53.83,53.83,0,0,1,11.1,6.55c-.47-1-1-2.23-1.73-3.56l-.56-1.6a79.68,79.68,0,0,0-26.83-41.94L910,621.55l26.71,6.85a63.59,63.59,0,0,0,14.21,2c-2.07-2.35-23-25.49-59.41-36.25l-1.83-.83A179.85,179.85,0,0,0,871.3,596l-5.41,1.09-1.5-5.31c-1-3.37-3.67-8.29-5.85-8.64-1.42-.21-5.28,1.67-10.93,10.09l-2.3,3.44-4-.95c-.21-.05-23-5.08-37.56,10.15l-2.44,2.55-3.41-.92c-15.42-4.12-30.34-4.69-34.63-2.59,1.46,1.39,4.73,3.43,11.16,5l39.85,10-41.06,1.75c-.27,0-27.68,1.42-54.3,23.48-1.06.87-2.11,1.78-3.16,2.72,1.62,2.39,5.61,5.73,15.3,5.93l.14,11.9c-.71,0-18.51,1.31-25,21.23l-.47,1.06c-4.5,8-10.93,17.47-17.3,20.14a12.22,12.22,0,0,0,4.42,3.19l6.44,2.74L695.49,720a47.44,47.44,0,0,1-6.37,8,22.62,22.62,0,0,0,8.53,1.73l10.82.23-6,9C702.15,739.41,695.37,749.64,689.18,758.45Z" transform="translate(27.84)"/><path class="cls-8" d="M751.46,541s-1.35-31.21-41-56.44c0,0-54.06-23.15-79.55,52.71,0,0-.56,26.25,27.85,38.78,0,0,50,8.22,78.95-5.49C737.68,570.56,759.27,564.24,751.46,541Z" transform="translate(27.84)"/><path class="cls-40" d="M691.69,583.82a227.69,227.69,0,0,1-33.83-2.54l-1.28-.38c-31.28-13.8-31-42.53-31-43.74l.28-1.58c9.38-27.91,23.65-46.32,42.4-54.71a58.9,58.9,0,0,1,44.27-1.18l.76.4c38.45,24.45,42.92,54.46,43.42,59.87,2.68,8.36,2.33,15.84-1,22.24-4.7,9-13.85,12.55-16.05,13.29C725.61,582,707.38,583.82,691.69,583.82Zm-31.45-12.9c5.9.88,49.79,6.86,75.17-5.15l.78-.3s7-2.22,10.13-8.25c2-3.9,2-8.79.11-14.53l-.27-1.44c-.07-1.26-2-28.78-38.16-51.94-2.49-.93-18.55-6.38-35.56,1.3-15.68,7.09-27.88,23.07-36.24,47.49C636.37,542.08,638.38,560.93,660.24,570.92Z" transform="translate(27.84)"/><path class="cls-39" d="M662.09,320.27s62.23,3,86.53-19.88c0,0,3.38,13.48-.46,21.72,0,0,9.12,1.89,14.65.31a99.74,99.74,0,0,1-15,16.35s9.74,6.89,70.86,1.5c0,0-1.08,10-13.33,16.42,0,0,31.6,12.35,36.6,35.84,0,0-20-7.11-30.08-7.32,0,0,13.38,17,16.62,37.09,0,0-2.37-8-29.76-12.32,0,0,11.71,19-.84,39.44,0,0-17.12-23.12-29.72-33.41,0,0-2,10-8,33.23,0,0-26.74-37.3-47.6-46.09a79.33,79.33,0,0,1-.8,37.75s-11.4-23-58.59-44c0,0-7.43,5.17-9.79,29.85,0,0-16.41-3.69-23.38-20.53,0,0-2.54,33.34-19.37,49.68,0,0-12.57-11.95-10.28-33.61,0,0-20.28,24.05-34.32,22l-28.48-56s14.25-25.23,43-33.94c0,0-13.62,2.08-20.84-3.08,0,0,11.31-14.79,51.59-13.94,0,0,2.12-13.31,20.57-19.6,0,0,31.27-6,36.94-14.25C658.78,303.5,669.66,308.74,662.09,320.27Z" transform="translate(27.84)"/><path class="cls-40" d="M600.64,464.15l-4.15-3.94c-.46-.45-9-8.75-11.64-23.76-8.07,7.29-19.48,15.23-29.69,13.76l-3.07-.44-31.32-61.61,1.57-2.78a87.93,87.93,0,0,1,26.82-27.52,20.71,20.71,0,0,1-2.95-1.73l-5-3.58,3.73-4.87c1.3-1.7,13.46-16.1,52.09-16.32,2.49-5.57,8.56-14.36,22.89-19.25l.79-.21c13.67-2.63,30.65-8.12,33.17-11.78l2.89-4.2,4.6,2.21c.7.34,6.89,3.5,8.81,10.41a15.38,15.38,0,0,1,.43,5.89c17.2-.12,56.74-2.22,73.93-18.38l7.39-7,2.47,9.85a54.32,54.32,0,0,1,1.24,18.11,18.91,18.91,0,0,0,5.53-.36l16-4.56-9.45,13.67a94.6,94.6,0,0,1-8,9.75c8.89,1,26.27,1.63,58.48-1.21l7.23-.64-.78,7.21c-.05.41-.94,7.78-7.82,14.73,10.67,5.94,27.18,17.8,31,35.65L850,401.7l-10-3.57c-3.05-1.08-9.45-3.17-15.75-4.78,4,7.22,8.42,17.14,10.17,28L822.77,424a3.36,3.36,0,0,0,.32.79c0-.06-2.52-3.65-14.87-6.81A43.85,43.85,0,0,1,803,452.54l-4.62,7.51L793.09,453a294.68,294.68,0,0,0-21.41-25.53c-1.27,5.4-3.15,13.05-5.78,23.29l-3.18,12.34-7.43-10.36c-5.75-8-21.09-27.23-35.09-38a85.82,85.82,0,0,1-2.72,27.72l-4.13,15.1-7-14c-.08-.16-10.78-20.16-51.46-39.29-1.74,3.24-4.41,10.08-5.65,23.05l-.64,6.73-6.6-1.48a42.26,42.26,0,0,1-18.57-10.66c-2.65,11.83-8,27.9-18.72,38.27Zm-2.36-60.52-2,19.28a38.17,38.17,0,0,0,4.65,23.47C612,430.73,614,406,614,405.75L616,381l9.52,23a29.13,29.13,0,0,0,12.95,14.41c3.19-19.71,9.88-25.33,11.32-26.34l2.76-1.92,3.07,1.37c28,12.5,44,25.83,52.64,35.06a71.13,71.13,0,0,0-1.43-21.81l-3.18-11.77,11.24,4.74c15.26,6.43,32.76,26.08,42.53,38.2,3.58-14.43,4.93-21,5-21.05l2-9.64,7.63,6.22c8.35,6.81,18.32,18.64,24.61,26.52a33.72,33.72,0,0,0-2.89-24.82l-6.76-11,12.77,2a102.66,102.66,0,0,1,18.7,4.51,92.17,92.17,0,0,0-11.17-19.72l-7.8-9.9,12.61.27c5.32.11,12.7,1.81,19,3.59-7.83-10.82-21.78-18.24-27.87-20.62L791,357.48l11.55-6.06a23.39,23.39,0,0,0,5.95-4.36c-49.73,3.6-61.62-1.64-64.15-3.43l-6.18-4.36,5.69-5c2.28-2,4.32-4,6.1-5.84-1.58-.22-2.7-.44-3-.51l-7.37-1.53,3.18-6.81a20,20,0,0,0,1.26-8.41c-29,17.34-79.82,15.16-82.21,15l-10.42-.49,5.72-8.72c1-1.49,2-3.62,1.59-5.27l-.06-.21c-9.93,6.58-28.37,10.65-35.25,12-14.17,5-16.17,14.46-16.25,14.87l-1,4.92h-5c-18-.41-29.71,2.52-36.9,5.53,2-.17,4.07-.15,5.36-.35l2.64,11.58c-20.78,6.3-33.52,22.31-37.87,28.6l25.24,49.63c7.74-1.53,19.45-11.93,26.14-19.85Z" transform="translate(27.84)"/><path class="cls-8" d="M796.29,509.62S779,535,798.88,556.32c0,0,27.66,13.73,36.66.22,0,0,15-54.5-9.47-73.31C826.07,483.23,797.93,495.06,796.29,509.62Z" transform="translate(27.84)"/><path class="cls-40" d="M822.19,567.84c-11.52,0-23.63-5.75-25.67-6.77L795,559.94c-17.38-18.66-10.4-41.72-3.78-52.26,3.18-16.44,29.7-28,32.79-29.34l2.84-1.2L829.3,479c27,20.74,12,76.54,11.36,78.91l-.7,1.53C835.75,565.79,829.07,567.84,822.19,567.84ZM802.11,552c6.65,3.08,23.08,8.76,28.56,2.21,3.71-14.25,9-49.87-5.55-64.73-9.71,4.63-22.71,13.23-23.56,20.74l-.15,1.3-.73,1.08C800,513.61,786.54,534.33,802.11,552Z" transform="translate(27.84)"/><path class="cls-40" d="M899.35,779.43c-16.72-9-24.18-6.4-24.26-6.39-1.18.47-21.32,7.84-40-.46-4.91-.88-36-6-63.69,1.92L768,762.44c33-9.39,68.79-2.31,70.29-2l1.42.46c14.1,6.63,30.46.62,30.62.55,1.4-.75,12.58-5.16,35,7Z" transform="translate(27.84)"/><path class="cls-45" d="M850.24,707.1s-33.81-23.87-33.11-40.36c0,0,3.19-23.21,29.36-37.81,0,0,42.56-20.17,74.5,21.92,0,0,9.12,15.95-14.25,48.74C906.74,699.59,891.7,731.79,850.24,707.1Z" transform="translate(27.84)"/><path class="cls-40" d="M878.84,722.69c-9.74,0-20.39-3.41-31.81-10.21l-.41-.26c-6.11-4.32-36.56-26.81-35.76-45.74.2-1.67,4-27.09,32.57-43,.84-.41,47.93-22,82.56,23.61l.44.68c1.13,2,10.33,20.31-14.31,55.1a37.28,37.28,0,0,1-33.28,19.85Zm-25.18-20.85c12.68,7.5,23.66,9.93,32.66,7.25a25.9,25.9,0,0,0,14.75-12.19l.56-.94c18.81-26.39,14.68-40,14-41.8-28.46-37-64.91-20.29-66.46-19.57-22.52,12.58-25.71,32.21-25.84,33C823,676,840.8,692.7,853.66,701.84Z" transform="translate(27.84)"/><path class="cls-46" d="M700.74,495c-17.08,2.85-27.84,22-24,42.81s20.77,35.35,37.86,32.5,27.84-22,24-42.81S717.83,492.16,700.74,495Z" transform="translate(27.84)"/><path class="cls-47" d="M712.34,508.7c-10.58,1.77-17.24,13.63-14.87,26.51s12.85,21.89,23.44,20.12,17.24-13.62,14.88-26.5S722.92,506.94,712.34,508.7Z" transform="translate(27.84)"/><path class="cls-8" d="M672.92,524.41a14.91,14.91,0,0,0-12.26,17.45,15.52,15.52,0,0,0,17.75,12.44,14.9,14.9,0,0,0,12.26-17.44A15.51,15.51,0,0,0,672.92,524.41Z" transform="translate(27.84)"/><path class="cls-8" d="M709.53,548.33c-4,4.4-4.74,10.7-1.64,14.07s8.87,2.52,12.87-1.89,4.74-10.7,1.64-14.06S713.53,543.93,709.53,548.33Z" transform="translate(27.84)"/><path class="cls-44" d="M739.22,481.52s-44.45-49-93.27-38.15c0,0-11.33,5.34,9.09,11.74,0,0-33.67,1.51-28.38,16.56,0,0,5.4,9.45,18.52,7.86,0,0-19,15.52,5.2,19.28,0,0,45-8.88,96.61,27.7,0,0,13,1.43,14-41.15,0,0-8.89-21.27-11.3,4.34Z" transform="translate(27.84)"/><path class="cls-40" d="M747.14,531.81a6.65,6.65,0,0,1-.73,0l-1.37-.15-1.12-.8C694.79,496,651.82,503.92,651.41,504l-.92.18-.93-.14c-9.39-1.46-14.91-5-16.41-10.5a13.09,13.09,0,0,1,1.5-9.65,23,23,0,0,1-12.6-9.6l-.4-.87a13,13,0,0,1,1.35-12c3.26-4.83,9.79-7.67,16.15-9.33a8.45,8.45,0,0,1-1.62-4.41c-.31-4.46,3.12-7.71,6.15-9.14l1.11-.38c49.61-11.05,93.55,34.58,98,39.42l3,2.39c1.25-4.34,3.38-7.55,7.34-8.16,6.38-.94,10.65,6.76,12.62,11.46l.43,1,0,1.12c-.48,22.36-4.33,36.87-11.47,43.13A11.69,11.69,0,0,1,747.14,531.81Zm-83.45-39.29c17.58,0,49.33,4.11,84.31,28.23,1.63-1.64,6.91-8.39,7.61-34.32l-.18-.36c-.18,1.11-.36,2.47-.51,4.13l-.91,9.67-18.72-14.79c-.42-.45-40.67-44.11-84.5-37.23a45.25,45.25,0,0,0,5.84,2.19l28.67,9-30,1.39c-7.82.36-20.69,2.84-23.5,7a2.19,2.19,0,0,0-.28,2c1,1.4,4.91,5.84,13,4.86l18-2.19-14,11.55c-3,2.44-5.41,6.09-5.16,7.13,0,0,.94,1.61,7,2.67A87.7,87.7,0,0,1,663.69,492.52Z" transform="translate(27.84)"/><path class="cls-46" d="M822.33,503.79c-10-.71-18.51,9.77-19,23.39s7.2,25.24,17.2,26,18.51-9.77,19-23.39S832.32,504.5,822.33,503.79Z" transform="translate(27.84)"/><path class="cls-47" d="M827.12,514.09c-6.19-.44-11.46,6-11.77,14.48s4.46,15.63,10.65,16.07,11.46-6,11.77-14.48S833.31,514.53,827.12,514.09Z" transform="translate(27.84)"/><path class="cls-8" d="M820.48,538.58c-2.82,2.18-4,6-2.72,8.6s4.68,2.87,7.5.69,4-6,2.72-8.59S823.3,536.4,820.48,538.58Z" transform="translate(27.84)"/><path class="cls-44" d="M789.8,488.68s19.11-44.77,54.75-47.23c0,0,8.91,1.46-3.52,10.39,0,0,23.23-6,23.05,6a12.92,12.92,0,0,1-10.81,9.59s16.44,7.2.83,15c0,0-32.63,3.1-59.38,40.39,0,0-8.55,3.79-18.81-26.77,0,0,1.23-17.24,8.67.75Z" transform="translate(27.84)"/><path class="cls-40" d="M793.74,528.26a10.62,10.62,0,0,1-4.28-1c-6.83-3-12.91-12.68-18.58-29.59l-.34-1,.08-1.06c.36-5.13,1.91-11.42,7.25-12.28,3-.5,5.26.95,7.06,3.06l.18-.27c2.26-5.09,22.16-47.46,59.08-50l.62-.05.61.11c2.81.46,6.43,2.38,7.33,6.26a7.6,7.6,0,0,1,.17,2.54c4.38.06,8.91.88,12.11,3.4a11.36,11.36,0,0,1,4.35,9.48l-.09.91a17.6,17.6,0,0,1-5.82,9.59,10.83,10.83,0,0,1,2.66,6.64c.13,4.77-3.12,8.85-9.65,12.12l-1.88.54c-.28,0-30.69,3.52-55.57,38.2l-.84,1.17-1.32.58A7.74,7.74,0,0,1,793.74,528.26Zm-8.47-22.76c3.21,7,5.82,10,7.3,11.29,24.92-32.8,53.84-38.62,59.92-39.51,2.63-1.43,3.09-2.35,3.1-2.36a37.05,37.05,0,0,0-4.45-2.66L835,465.2l17.33-3c4.56-.8,6-3.82,6.39-4.94a.61.61,0,0,0-.27-.48c-2.2-1.74-10.26-1.28-16.12.22L815,464l22.18-15.93c-27.2,7.51-42.35,42.32-42.52,42.7l-.41.79Z" transform="translate(27.84)"/><path class="cls-48" d="M872.22,677.42s-19.14-13.52-18.75-22.85c0,0,1.81-13.14,16.62-21.4,0,0,24.09-11.42,42.17,12.41,0,0,5.17,9-8.06,27.59C904.2,673.17,895.68,691.39,872.22,677.42Z" transform="translate(27.84)"/><path class="cls-40" d="M570.24,484c-10.87-9.85-29.73,2-29.73,2s-24.61,12.86-43.88-30.16c0,0,26.34-43.09,63.6-30.5,0,0,7.1,34.38,24.88,60.26L570.24,484" transform="translate(27.84)"/><path class="cls-39" d="M602.46,482.94s-22-33.13-26.33-73.14c0,0,2.85-22-28.59-26,0,0-15.77.08-38.46,10.61-12.37,5.74-48.72-12.45-71.53,15.65-23.37,28.8-35.73,51.36-50.05,133.52,0,0-8.85,54.21,25,66.81,0,0,41.73,13.31,65.09-51.32,0,0,24.38-89.54,59.8-111.76,0,0,15.87-3.75,21.32,6.28,0,0-8,30.71,29.53,37.29" transform="translate(27.84)"/><path class="cls-40" d="M602.46,482.94a174.06,174.06,0,0,1-19.62-34.24,166.24,166.24,0,0,1-11.73-38.36v-1.19a16.63,16.63,0,0,0-2.16-7.36,21.41,21.41,0,0,0-5.27-5.86,28.81,28.81,0,0,0-7.62-4.15,57.24,57.24,0,0,0-9.28-2.07l.78.05c-7.52.38-16.32,2.5-24.22,5.27-4.05,1.42-7.9,3-12,4.84-6.76,2.5-11.5,1.54-16.21,1.37-9.16-.86-17.63-1.93-25.75-1.19A37.54,37.54,0,0,0,448,408.13c-5.63,4.61-11.08,12.34-16.12,19.21a146.28,146.28,0,0,0-13,22.23c-7.38,15.55-12.25,32.5-16.33,49.67-2.06,8.58-3.85,17.26-5.55,26l-2.44,13.09-1.16,6.48c-.26,1.89-.51,4.09-.64,6.17-1,16.62.79,35,10.93,46.31a18.18,18.18,0,0,0,4.09,3.7,17.1,17.1,0,0,0,4.65,2.77c2.4,1.75,6.66,1.79,10.39,1.82a39.75,39.75,0,0,0,21.73-7.62,60.21,60.21,0,0,0,16.4-18c4.61-7,7.93-14.92,11.07-22.9l-.14.46a419.88,419.88,0,0,1,22.67-61.29,209.75,209.75,0,0,1,16-28.92c5.88-9.47,13.68-18.22,24.2-24.18l1-.53.55-.1a36.17,36.17,0,0,1,6.93-.44,30,30,0,0,1,6.88.94,21.34,21.34,0,0,1,6.75,3,16.72,16.72,0,0,1,5,5.88l.68,1.31-.36,1.26a29.2,29.2,0,0,0-.79,12A24.59,24.59,0,0,0,566,477.8a32.16,32.16,0,0,0,9.78,8.28c1.9,1.11,4,1.85,6,2.81l6.45,2-6.72-1.07c-2.17-.66-4.44-1.12-6.58-2a33.35,33.35,0,0,1-11.85-7.57A29.16,29.16,0,0,1,556,467.56a35,35,0,0,1-.73-14.86l.31,2.57c-1.59-2.35-4.09-3.6-7.28-4a22.06,22.06,0,0,0-5,0,27.24,27.24,0,0,0-4.87.9l1.5-.63c-7.72,5.7-13.45,14.3-19.58,22.46a197.05,197.05,0,0,0-15.14,27.32,409,409,0,0,0-22,59.37l-.09.33-.05.12c-3.39,8.65-7,17.29-12.24,25.27a72.13,72.13,0,0,1-19.59,21.31,51.72,51.72,0,0,1-28.21,9.78,52.58,52.58,0,0,1-7.7-.4,39.67,39.67,0,0,1-4-.77,46.86,46.86,0,0,1-10.83-5.76,29.18,29.18,0,0,1-5.82-5.26c-7-7.8-10.73-17.5-12.51-26.88a110,110,0,0,1-1.47-28.29c.16-2.37.39-4.62.74-7.15l1.21-6.72,2.48-13.28c1.71-8.83,3.54-17.66,5.65-26.46,4.19-17.57,9.2-35.22,17.15-52a158.82,158.82,0,0,1,14.07-24c5.56-7.43,10.29-14.73,18.39-21.62a49.5,49.5,0,0,1,27.89-10.67c9.76-.87,19.16.4,27.78,1.18,4.12.39,8.63.38,10.32-.35,4.12-1.84,8.52-3.7,12.91-5.23,9-3,17.71-5.4,28.09-5.94l.33,0,.45.07a68.81,68.81,0,0,1,11.64,2.61c3.85,1.44,7.81,3,11.28,5.81A25.91,25.91,0,0,1,579.3,397a26.22,26.22,0,0,1,1.84,13.48l0-1.19a158.84,158.84,0,0,0,6.71,37.59A205,205,0,0,0,602.46,482.94Z" transform="translate(27.84)"/><path class="cls-38" d="M483,924.65S724.66,976,834.78,936.93c0,0,7.16,25.89-.79,48.67,0,0-175.27,35.17-352.26-16.92C481.73,968.68,476.42,953.85,483,924.65Z" transform="translate(27.84)"/><path class="cls-37" d="M693.19,1002.72c-61.92,0-137.55-6.38-213.06-28.6l-2.77-.82-1-2.71c-.24-.67-5.79-16.73,1.08-47.19l1.23-5.46,5.48,1.17c2.4.5,241.37,50.57,348.7,12.48l5.75-2,1.62,5.87c.31,1.13,7.53,27.88-.9,52l-1.07,3.06-3.17.63C834.1,991.36,775.84,1002.72,693.19,1002.72ZM486.44,964.14c159.5,46,318.57,20.87,343.17,16.5,3.87-13.74,2.32-28.41.94-36.33-104.34,32.78-306.09-5.48-343.14-13C484.25,948.39,485.52,959.41,486.44,964.14Z" transform="translate(27.84)"/><ellipse class="cls-41" cx="751.34" cy="973.53" rx="56.92" ry="40.38"/><path class="cls-42" d="M723.5,1019.07c-34.24,0-62.09-20.44-62.09-45.54S689.26,928,723.5,928s62.09,20.43,62.09,45.54S757.73,1019.07,723.5,1019.07Zm0-80.75c-28.54,0-51.76,15.79-51.76,35.21s23.22,35.21,51.76,35.21,51.76-15.8,51.76-35.21S752,938.32,723.5,938.32Z" transform="translate(27.84)"/><ellipse class="cls-38" cx="756.73" cy="973.53" rx="31.9" ry="22.63"/><path class="cls-37" d="M728.89,1000.91c-20.22,0-36.67-12.28-36.67-27.38s16.45-27.39,36.67-27.39,36.66,12.29,36.66,27.39S749.11,1000.91,728.89,1000.91Zm0-45.25c-14.71,0-27.13,8.19-27.13,17.87s12.42,17.86,27.13,17.86S756,983.21,756,973.53,743.59,955.66,728.89,955.66Z" transform="translate(27.84)"/><ellipse class="cls-49" cx="763.14" cy="969.32" rx="18.64" ry="11.01"/><path class="cls-8" d="M748.87,967.23a6.31,6.31,0,1,1-6.3-6.3A6.3,6.3,0,0,1,748.87,967.23Z" transform="translate(27.84)"/><path class="cls-39" d="M569.2,813.21s44.2-45-22.33-103.69c0,0-32.79-12.54-65.12,52.18,0,0-48.59,83.14,61.25,100.15" transform="translate(27.84)"/><path class="cls-40" d="M569.2,813.21A60.19,60.19,0,0,0,578.07,786a67.07,67.07,0,0,0-.66-13.57,46.85,46.85,0,0,0-2.23-13.22c-2.51-8.7-7.23-16.85-12.76-24.41A141,141,0,0,0,542.93,714l1.81,1.09a18,18,0,0,0-5.06-.54,25.09,25.09,0,0,0-5.95.76,37.23,37.23,0,0,0-11.6,5c-7.43,4.62-13.85,11.33-19.49,18.67s-10.33,15.59-14.88,24.13a86.23,86.23,0,0,0-9.48,25.65c-1.68,8.86-1.86,18,.64,26.21A43.19,43.19,0,0,0,493,836.2a37.37,37.37,0,0,0,5.36,3.91c1.72,1.4,3.62,2.68,5.43,4.08a93.23,93.23,0,0,0,12.1,7.11A185.18,185.18,0,0,0,543,861.85a145.87,145.87,0,0,1-29.71-3.44,101.87,101.87,0,0,1-14.69-4.71,40.41,40.41,0,0,1-13.39-8.46,55.24,55.24,0,0,1-17.73-27c-3.16-10.53-2.84-21.55-.9-31.79a98.56,98.56,0,0,1,10.72-29.1c4.63-8.67,9.51-17.57,15.88-25.65s13.47-15.81,22.67-21.56A49.1,49.1,0,0,1,531,703.7a37.14,37.14,0,0,1,8.55-1.07A27.64,27.64,0,0,1,549,704l.9.29.92.81A153.29,153.29,0,0,1,572,727.65c6.16,8.42,11.59,17.71,14.63,28.11a80.87,80.87,0,0,1,3,16,53.31,53.31,0,0,1-3,16A55.83,55.83,0,0,1,569.2,813.21Z" transform="translate(27.84)"/><path class="cls-41" d="M495.52,738.57s2.33,28.26,43.73,39.59c0,0,42.13,2.81,48.5-44.57,0,0,12-7.1-22.12-37.07,0,0-23.09-25.9-52-6.07C513.67,690.45,489.7,708.9,495.52,738.57Z" transform="translate(27.84)"/><path class="cls-42" d="M540.15,783.88c-.79,0-1.23,0-1.28,0l-1.13-.19c-42.62-11.67-47.42-40.42-47.87-44.25-6.26-32.61,19.23-52.65,20.31-53.49,26.37-18.12,50.56-3.46,59.71,6.79,17.9,15.68,26.42,28.09,25.55,37.45a11.67,11.67,0,0,1-2.3,6.08C586,781.62,547.68,783.88,540.15,783.88Zm0-11.39c4.7.17,36.68-.54,42-39.66l.36-2.73,1.6-1c.13-1.43-.42-9.2-22.21-28.35-1.29-1.38-20.69-22.32-45-5.65-.6.48-20.82,16.61-15.78,42.32l.09.6C501.33,739.28,504.25,762.41,540.15,772.49Z" transform="translate(27.84)"/><path class="cls-41" d="M585.18,720.59s7.54-47.84,22.89-49.5c0,0,18.86-3,33.65,15.53,0,0-.83,27-31.84,50C609.88,736.57,595.78,741.83,585.18,720.59Z" transform="translate(27.84)"/><path class="cls-42" d="M606,742.35c-7.33,0-17.75-4.08-25.42-19.46l-.73-1.47.25-1.63c1.91-12.14,9.54-51.9,27.43-53.83.64-.13,21.76-3.15,38.24,17.44l1.19,1.48-.06,1.9c0,1.2-1.28,29.81-33.93,53.94l-1.27.68A16.44,16.44,0,0,1,606,742.35Zm-15.43-22.61c7,13,14.72,12.6,17,12.12,23.58-17.77,28-37.51,28.81-43.58-12.35-14.06-26.9-12.19-27.54-12.09C602.07,676.92,594,699.37,590.55,719.74Z" transform="translate(27.84)"/><path class="cls-41" d="M512.21,706.33s-1.52-25.67,27.14-58.53c0,0,30.66-17.26,74.34,15.71,0,0,16.87,18.46-15.5,58.28,0,0-31.54,39.91-53.24,29.09C545,750.88,504.71,730.5,512.21,706.33Z" transform="translate(27.84)"/><path class="cls-42" d="M553.13,757.93a23.17,23.17,0,0,1-10.49-2.45c-1.8-.91-43.21-22.23-35.61-49.84,0-5.29,1.51-30.38,28.42-61.24l1.36-1.1c1.37-.78,34.13-18.53,80,16.09l.7.64c.81.89,19.47,22.24-15.3,65C599.23,728.81,575.47,757.92,553.13,757.93Zm-10.54-106c-26,30.25-25.24,53.88-25.23,54.11l0,.91-.27.89c-6,19.47,29.78,38.24,30.15,38.42,14.6,7.35,38.79-17.5,46.86-27.68,26.6-32.73,17.48-49,15.88-51.37C573.27,639.77,547.3,649.74,542.59,651.94Z" transform="translate(27.84)"/><path class="cls-44" d="M420,972.36s43.18,54.05,88.24,28.64c0,0,5.42,6.66-2.28,16.56,0,0,15.83-7.26,22.68-22.86,0,0,5.69,8.12,1.83,25,0,0,10.6-1.26,10.87-18,0,0,1.11-14.85-1.64-27.25,0,0,28.94,20.57,23.59,59.2,0,0-2.36,31-40.33,43.57,0,0,8.9,6,16.89,5.41,0,0-32.91,28.91-89.32.29,0,0-.49,5.76,7.12,13.42,0,0-54-6.21-72-70.2,0,0-4.8,6.42-6.16,17.93,0,0-20-56.45-8.73-110.72,0,0,11.4-18.84,26.85,2.3C397.55,935.6,402.7,946.27,420,972.36Z" transform="translate(27.84)"/><path class="cls-50" d="M471.63,1103.09,457,1101.41c-.53-.06-49.79-6.37-71.83-60.58-.25,1.19-.46,2.45-.62,3.79l-2.6,22-7.39-20.89c-.84-2.36-20.34-58.45-8.92-113.49l.64-1.62c.6-1,6.19-9.79,15.83-10.2,6.86-.29,13.5,3.77,19.6,12.12l.48.8c.05.11,5.28,10.76,21.92,35.95,2.58,3.13,42,49.52,81.53,27.21l3.79-2.14,2.75,3.38a15.21,15.21,0,0,1,2.86,7.09,38.46,38.46,0,0,0,8.81-12.21l3.68-8.41,5.27,7.52a24.07,24.07,0,0,1,3.37,8.83c.18-3.47.61-15.23-1.57-25.05l-2.91-13.09,10.94,7.77c1.29.91,31.43,22.85,25.71,64.1-.06,1-2.46,27.64-32.22,42.93a12.49,12.49,0,0,0,3.26.2l15.48-1.22-11.66,10.24c-1.33,1.17-30.65,26.16-80.87,7.29ZM446,1074.79l6.84,3.48c34.91,17.71,60.12,12.26,73.25,6.48a43.12,43.12,0,0,1-6.06-3.32l-8.63-5.87,9.91-3.29c34.31-11.4,36.79-38.79,36.81-39.07a58.33,58.33,0,0,0-11.53-44.56,125,125,0,0,1-.13,13.4c-.31,20.71-14.79,22.67-15.4,22.75l-7.29.86,1.64-7.14a44,44,0,0,0,1.22-10.92,57.88,57.88,0,0,1-18.53,14.66l-19.18,8.81,12.95-16.66a13.72,13.72,0,0,0,2.92-5.95c-46.05,19.73-88.4-32.31-88.84-32.87l-.28-.37c-15.49-23.45-21.34-34.58-22.51-36.92-2.71-3.63-6.92-7.94-10.56-7.55-3.31.13-6,3.27-7,4.61-6.93,34.67-.8,70.45,4.1,90.58a25.33,25.33,0,0,1,1.8-2.93l6.27-8.39,2.84,10.08c11.73,41.63,39.52,57.47,55.59,63.28a14.55,14.55,0,0,1-.82-5.53Z" transform="translate(27.84)"/><path class="cls-51" d="M397.51,944.11s5.13,10.63,22.31,36.61c0,0,43,49,87.86,28.52,0,0,5.39,6.63-2.27,16.49,0,0,15.76-7.23,22.58-22.77,0,0,6,6.42,2.16,23.19,0,0,8.65,1.76,16.48-13.27,0,0,3-6.29,2.58-17.28l1.22,5.08c7.8,29.07-11.49,61.33-62,57.43l4.69,16s-27.14-2.17-43.92-30c0,0-12.27,11.26-12.83,17.87,0,0-15.72-15.38-20.27-48.47l-11.18,6.92s-25.49-34.45-21.39-74l8.68-8.28A35.31,35.31,0,0,1,397.51,944.11Z" transform="translate(27.84)"/><path class="cls-52" d="M40.35,743.2C130.82,860.13,236,756.59,236,756.59c28.39,43.13-26.87,122-26.87,122C152.79,922,88.53,877.14,88.53,877.14c-64.33-52.38-59-108.28-59-108.28C27.64,747.38,40.35,743.2,40.35,743.2Z" transform="translate(27.84)"/><path class="cls-50" d="M154.31,904.12c-38.3,0-69.19-21.12-69.65-21.45-63.78-51.91-62.4-106.86-61.95-113.79-2-26,14.8-31.85,15.53-32.09l4.53-1.49,2.92,3.78c25.47,32.91,54.46,50.69,86.15,52.83,54.15,3.58,99-39.69,99.46-40.12l5.86-5.77,4.52,6.87c30.55,46.41-24.62,126.16-27,129.53l-1.4,1.48A94.55,94.55,0,0,1,154.31,904.12ZM39.21,752.6c-1.89,2.64-3.71,7.4-3,15.69l.06.6-.06.61c-.19,2.12-3.87,53.18,56.59,102.41,2,1.42,59.94,40.74,111.41,1.94,5.27-7.84,44.94-68.79,29.86-106.48-15.35,12.79-55.28,41.21-103.14,38C97,803.08,66.16,785.33,39.21,752.6Z" transform="translate(27.84)"/><path class="cls-52" d="M369.55,755.6s30.2,20.09,67.78,73c0,0,50.59,67.31-19.08,76.63,0,0-117.22-95.67-128.08-139.07C290.17,766.2,320.88,729,369.55,755.6Z" transform="translate(27.84)"/><path class="cls-50" d="M416.24,912.35,414,910.5c-4.86-4-119.08-97.6-130.36-142.67l-.82-3.3L285,761.9c.33-.42,34.85-41.13,87.82-12.22l.5.3c1.28.85,31.68,21.4,69.55,74.75,1,1.35,27.28,36.76,16.26,63-5.56,13.26-19,21.4-40,24.2ZM297.78,768c12.56,34.4,89.85,103.31,122.44,130.18,14.18-2.37,23.07-7.61,26.42-15.59,6.68-15.89-8.35-41.4-14.71-49.89-34.72-48.9-63.17-69.4-65.91-71.32C330,741.88,305.36,760.72,297.78,768Z" transform="translate(27.84)"/><path class="cls-52" d="M427.64,816.33s59.31-19.24,77,20.58c0,0,11.46,27.41-32.31,52.29,0,0-77.88,45.67-91.46-25.35C380.88,863.85,381.5,830.72,427.64,816.33Z" transform="translate(27.84)"/><path class="cls-50" d="M423.69,910.39a51.71,51.71,0,0,1-21.49-4.3c-14.61-6.61-24-20.4-27.95-41l-.13-.69v-.7c0-1.55,1.29-38.15,51.46-53.82,3.16-1,65.37-20.4,85.23,24.27.62,1.48,13.27,33.37-35.14,60.89C474.38,895.82,449.17,910.39,423.69,910.39Zm-36-47c3.14,15.56,9.9,25.79,20.11,30.42,20.07,9.08,50.94-4.44,61.14-10.43,37.59-21.37,29.81-43,29.46-44-15-33.63-68.12-16.84-68.66-16.67l-.07,0C392,834.51,388.08,859.05,387.67,863.39Z" transform="translate(27.84)"/><path class="cls-52" d="M417.87,813.74s-21.42,9.11-18.77,65.1l-14.25-7.14-15.8-53.45S381.89,802.75,417.87,813.74Z" transform="translate(27.84)"/><path class="cls-52" d="M354.21,770.51s66.38,57.75,65.28,237c0,0-13.9,54-87.35,73.89,0,0-37.4,8.63-75.78-3.91,0,0-66.12-20.38-96-71.59,0,0-29.28-143.67,59.68-228.09Z" transform="translate(27.84)"/><path class="cls-50" d="M301.59,1091.1a153.16,153.16,0,0,1-47.32-7.16c-2.7-.83-68.89-21.72-99.77-74.6l-.79-2.06c-1.22-6-29-148.32,61.65-234.32l1.8-1.72,139.41-7.61,2.07,1.79c2.8,2.44,68.71,61.85,67.6,242.17l-.21,1.64c-.61,2.36-15.75,58-92.12,78.73A155.9,155.9,0,0,1,301.59,1091.1Zm-134.84-87.58c28.53,47.68,91,67.37,91.6,67.56,36.29,11.86,71.92,3.88,72.27,3.79,64.15-17.43,80.2-62.14,82.12-68.3.75-155.86-50.71-218.14-61.16-229.16l-128.7,7C143.77,861.71,164.41,990.47,166.75,1003.52Z" transform="translate(27.84)"/><path class="cls-52" d="M419,980.93s30.9,47.86,40.63,111.49c0,0,4.73,38.18.71,75,0,0,42.5,19.46,15.64,28.19,0,0-34,7.37-64.62.56,0,0-9.74-4.17-7.75-22.59,0,0-9.42-31.77-20.55-51.49,0,0-33.4-31.35-78.59-51.59" transform="translate(27.84)"/><path class="cls-50" d="M440.17,1205.83a141,141,0,0,1-30.3-3l-1.2-.39c-5.18-2.21-13.35-10.61-11.92-28.09-1.81-5.85-9.87-31.24-19.07-48-5.13-4.65-36.06-31.8-76-49.68l5.52-12.31c45.7,20.47,79.06,51.52,80.46,52.83l1.26,1.61c11.37,20.15,20.74,51.57,21.14,52.89l.38,1.3-.14,1.34c-1.16,10.72,2.33,14.52,3.56,15.51,28.52,6,60.35-.73,60.66-.81a12.7,12.7,0,0,0,3.31-1.57c-1.87-3.27-11.19-9.69-20.34-13.89l-4.43-2,.53-4.84c3.9-35.65-.65-73.09-.7-73.47-9.37-61.29-39.29-108.19-39.59-108.65l11.34-7.32c1.29,2,31.8,49.82,41.63,114.13.21,1.7,4.43,36.42,1.22,72,9.81,5,24.71,14.42,24.09,25.16-.35,6.12-4.9,10.65-13.54,13.45A190,190,0,0,1,440.17,1205.83Z" transform="translate(27.84)"/><path class="cls-52" d="M273.24,1071.06c-44.82,21-77.67,53-77.67,53-10.78,19.91-19.65,51.84-19.65,51.84,2.31,18.38-7.35,22.72-7.35,22.72-30.45,7.34-64.63.56-64.63.56-27-8.26,15.16-28.45,15.16-28.45-4.67-36.77-.6-75-.6-75,8.61-63.78,38.67-112.18,38.67-112.18" transform="translate(27.84)"/><path class="cls-50" d="M136.65,1208.76a190.53,190.53,0,0,1-34-3c-9.34-2.82-14-7.27-14.43-13.38-.81-10.74,13.93-20.41,23.65-25.58-3.83-35.55-.23-70.32-.07-71.85,8.74-64.66,38.4-113,39.66-115L162.91,987c-.29.47-29.41,48-37.72,109.52,0,.19-3.9,37.76.61,73.28l.61,4.83-4.39,2.11c-9.07,4.35-18.25,10.92-20.08,14.21a15.54,15.54,0,0,0,4,1.71h0c.19,0,32,6,60.11-.45.95-.81,4.57-4.59,3.19-15.54l-.17-1.34.36-1.31c.37-1.34,9.2-32.9,20.22-53.25l1.23-1.63c1.37-1.34,34.18-33,79.52-54.23l5.74,12.22c-39.61,18.58-70.07,46.26-75.11,51-8.92,16.9-16.54,42.4-18.24,48.28,1.74,17.47-6.29,26-11.44,28.3l-1.18.41A145,145,0,0,1,136.65,1208.76Z" transform="translate(27.84)"/><path class="cls-8" d="M269.18,787.43l36.16-3.81c40,12.86,63.42,87.8,63.42,87.8,46,157.66-36.42,192.2-36.42,192.2-32.79,22.11-70.92,8.62-70.92,8.62-109-35.93-58.82-194.88-58.82-194.88C230.16,787.77,269.18,787.43,269.18,787.43Z" transform="translate(27.84)"/><path class="cls-33" d="M213.86,791s-59.52,23.44-80.72,76.32c0,0-6.12,11.25,16.3,13,0,0,82.93-14.1,116.47-68.55C265.91,811.8,268.29,781.25,213.86,791Z" transform="translate(27.84)"/><path class="cls-34" d="M149.71,886.34l-.74-.05c-11.1-.89-18-4.06-21-9.7a13,13,0,0,1,0-12.13c21.61-54,81.24-78,83.77-79l1.13-.32c23.54-4.2,40.52-1.77,50.46,7.22a25.78,25.78,0,0,1,8.58,19.92l-.11,1.43-.75,1.23c-34.56,56.1-117.06,70.69-120.55,71.29Zm65.83-89.6c-5.76,2.43-57.93,25.53-76.87,72.78-.2.45-.47,1.06-.24,1.43.57,1,3.48,2.72,10.72,3.4,8-1.52,80.11-16.5,110.77-64.2a14.19,14.19,0,0,0-4.81-9.13C250.25,796.75,239.45,792.57,215.54,796.74Z" transform="translate(27.84)"/><path class="cls-33" d="M229.2,828.61s39.53,50.26,96.3,55.4c0,0,12.55,2.63,7.84-19.34,0,0-37.29-75.35-99.1-91.85C234.24,772.82,204.26,779.3,229.2,828.61Z" transform="translate(27.84)"/><path class="cls-34" d="M326.7,890.07a11.91,11.91,0,0,1-2.42-.23c-58-5.21-98.09-55.42-99.77-57.55l-.63-1C213.1,810,210.56,793,216.34,780.92A25.84,25.84,0,0,1,233,767l1.4-.3,1.39.37c63.69,17,101.34,91.8,102.91,95l.49,1.39c2.33,10.87,1.26,18.37-3.27,22.91A13,13,0,0,1,326.7,890.07Zm-92.47-64.71c4,4.82,41.09,48.13,91.81,52.72.49.07,1.15.15,1.45-.18.75-.82,1.61-4.1.18-11.23-3.74-7.21-38.79-72-93.3-87.64a14.09,14.09,0,0,0-7.37,7.22C224.29,792.12,223.38,803.67,234.23,825.36Z" transform="translate(27.84)"/><ellipse class="cls-33" cx="231.58" cy="806.43" rx="52.33" ry="33.7" transform="translate(5.61 6.72) rotate(-1.59)"/><path class="cls-34" d="M230.16,846.11c-31.48,0-56.24-16.41-56.85-38.07h0c-.61-22.22,24.5-40.34,57.16-41.25s58.74,15.8,59.37,38-24.49,40.34-57.16,41.26Zm-44.94-38.39c.42,15,22,27.35,47.13,26.45,25.12-.7,46-14,45.58-29S256,777.92,230.8,778.69s-46,14-45.58,29Z" transform="translate(27.84)"/><path class="cls-53" d="M103.53,789.65s-15.12,51.69-53.38,58.54c0,0-23.63-33.35-29.71-43.87L49.74,760S84.16,784.15,103.53,789.65Z" transform="translate(27.84)"/><path class="cls-54" d="M47.47,854.71l-2.19-3.08c-1-1.37-23.85-33.7-30-44.34l-1.84-3.18,34.71-52.49,5,3.51c.34.24,33.83,23.63,52,28.79l5.77,1.65-1.68,5.75c-.66,2.25-16.63,55.32-58,62.73Zm-20-50.25c6.24,9.94,19.83,29.36,25.23,37,25-6.86,38.56-36,43.22-48.18-15.39-6-35.33-18.82-44.56-25Z" transform="translate(27.84)"/><path class="cls-53" d="M59.86,796.27s22.22-29.59,5.76-49c0,0-9.39-16.6-19.41-11.37,0,0-16.55-18.27-29.92-13.26,0,0-22.22,19.17-11.87,25.23,0,0-15.82,18.09-10.88,36.34,0,0,4.49,27.93,40.76,34.28" transform="translate(27.84)"/><path class="cls-54" d="M33.27,824.38c-40-7-45.4-37.88-45.61-39.19-4.15-15.2,4.23-30.09,9.11-37.08a11.08,11.08,0,0,1-1-3.73c-.93-10.21,12.5-22.65,16.64-26.22l1.8-1.06c13.46-5.05,27.67,6.32,33.66,12,9.86-1.75,18.57,7.76,22.67,14.75,18.64,22.72-4.88,54.61-5.9,56L55.1,792.7c.19-.25,19.14-26.05,6-41.55l-.63-.91c-1.77-3.09-7.81-11-11.48-9l-4.07,2.12-3.1-3.4c-3.47-3.8-14.74-13.84-22.51-12C13,733.62,7.45,740.87,7.63,743.3l6.18,3.62-4.9,4.88c-.13.16-13.66,16-9.61,30.88.29,1.55,4.67,24.48,36,30Z" transform="translate(27.84)"/><path class="cls-53" d="M193.36,1137.23s-27.68,1.46-84.28-18.38c0,0-1,20.83,0,46.63,0,0-22.83,13.89-22.83,25.79,0,0,0,13.89,23.83,14.88,0,0,40.7,2.6,66.52-4.15,0,0,12.64-7.81,3.34-26.14A211.37,211.37,0,0,0,193.36,1137.23Z" transform="translate(27.84)"/><path class="cls-54" d="M128.66,1212.61c-10.59,0-18.24-.47-19-.52-29.07-1.21-29.41-20-29.41-20.82,0-12.32,15.44-24.11,22.72-29-.78-24.19.11-43.54.12-43.74l.38-8,7.55,2.65c54.44,19.09,81.75,18.06,82,18.06l7.9-.38-1.81,7.7a220.4,220.4,0,0,1-12.66,37.24c7.19,16.82-1.08,27.7-6.77,31.21l-1.62.7C162.87,1211.74,143.05,1212.61,128.66,1212.61Zm-13.88-85.53c-.2,8.32-.35,22.36.26,38.16l.13,3.5-3,1.82c-8.06,4.91-20,14.9-20,20.71.22,2.93,4.29,8.36,18.12,8.94.52,0,39.07,2.39,63.7-3.7,1.89-1.6,6.25-6.83.61-18l-1.34-2.62,1.28-2.66a207.12,207.12,0,0,0,11.15-30.3C174.37,1142.21,150.87,1139.09,114.78,1127.08Z" transform="translate(27.84)"/><path class="cls-53" d="M380.14,1137.23s27.69,1.46,84.28-18.38c0,0,1,20.83,0,46.63,0,0,22.84,13.89,22.84,25.79,0,0,0,13.89-23.83,14.88,0,0-40.71,2.6-66.52-4.15,0,0-12.64-7.81-3.34-26.14A211.82,211.82,0,0,1,380.14,1137.23Z" transform="translate(27.84)"/><path class="cls-54" d="M444.86,1212.61c-14.37,0-34.22-.87-49.46-4.85l-1.63-.7c-5.68-3.51-14-14.39-6.77-31.21a220.63,220.63,0,0,1-12.65-37.24l-1.85-7.74,7.94.42c.63,0,27.9.92,82-18.06l7.54-2.65.38,8c0,.2.91,19.55.13,43.74,7.28,4.86,22.72,16.65,22.72,29,0,.8-.34,19.61-29.54,20.83C463,1212.14,455.41,1212.61,444.86,1212.61Zm-45.35-16.09c24.66,6.07,63.15,3.7,63.54,3.69,14-.58,18-6,18.26-9.13,0-5.4-11.61-15.43-20-20.52l-3-1.82.14-3.5c.61-15.8.46-29.84.26-38.16-36.1,12-59.59,15.13-70.94,15.89a207.81,207.81,0,0,0,11.14,30.3l1.28,2.65-1.33,2.63C393.27,1189.6,397.54,1194.84,399.51,1196.52Z" transform="translate(27.84)"/><path class="cls-53" d="M483,801.53s-15.25,1.06-38,7.94c0,0-8.62,12.61-1.48,44.91,0,0,13.54,37.27,50.56,32.31,0,0,19.89-8.34,25.47-42.37Z" transform="translate(27.84)"/><path class="cls-54" d="M487.46,893.08c-28.49,0-44.77-23.32-49.62-36.66-7.7-34.59,1.12-48.79,2.16-50.31l1.18-1.73,2-.61c23.16-7,38.7-8.13,39.35-8.17l3-.21,40.27,47.18-.45,2.72c-6.05,36.85-28.12,46.5-29.05,46.88l-1.51.41A53.34,53.34,0,0,1,487.46,893.08Zm-38.29-40.4c1.42,3.61,13.45,31.47,43.11,28.22,3-1.59,16-9.88,20.83-34.85l-32.66-38.28a204.1,204.1,0,0,0-31.35,6.67C447.51,818.48,444.29,830.33,449.17,852.68Z" transform="translate(27.84)"/><path class="cls-53" d="M520.14,798s26,45.2-2.28,57.8c0,0-18.4,10-32.93-1.41,0,0-8.39-3.32-7-14.33,0,0,2-4-5.85-10.67,0,0-26.29-16.26-9.6-36.87C462.51,792.48,499.52,757.14,520.14,798Z" transform="translate(27.84)"/><path class="cls-54" d="M501.21,865.81a31.59,31.59,0,0,1-19.37-6.32c-4.48-2.22-11.28-8.7-9.78-20.23l.1-.77c-.23-.59-1-2.08-3.62-4.36-2.56-1.69-15-10.48-17.19-23.6-1.28-7.54.92-14.87,6.53-21.79,1.33-1.34,20.61-19.48,41-16,11,1.89,19.89,9.41,26.47,22.37,1.41,2.49,16.43,29.8,10,49.63a26.42,26.42,0,0,1-15.06,16.42A43.7,43.7,0,0,1,501.21,865.81Zm-17.39-24.55c-.52,5.36,2.48,7.18,3.44,7.62l1.35.8c11.32,8.9,26.24.92,26.4.86,4.81-2.17,7.62-5.18,9-9.43,4.16-12.72-5.12-33.33-9-40.19l-.15-.28C510,791.16,504,785.73,496.9,784.51c-14.33-2.48-30.12,12.13-30.27,12.27-2.89,3.64-4.21,7.66-3.54,11.72,1.25,7.48,9.21,13.94,12.18,15.8l.7.52C484.73,832.26,484.58,838.42,483.82,841.26Z" transform="translate(27.84)"/><path class="cls-53" d="M494.28,770.14l17.35-5a47.92,47.92,0,0,1,26.17,16.7s19.32,26.56-4.63,50.41c0,0-31.42,14.12-45.83-17.64C487.34,814.56,462,789,494.28,770.14Z" transform="translate(27.84)"/><path class="cls-54" d="M517.54,841.38c-12.41,0-26.6-5.32-35.21-23.47-2.8-3.14-12-14.59-10.17-28.2,1.3-9.76,7.73-18.07,19.12-24.72l1.34-.57,18.7-5.44,1.38.25a53.91,53.91,0,0,1,29.76,18.84c7.88,10.84,16.71,36.64-5.09,58.34l-1.76,1.21A45.2,45.2,0,0,1,517.54,841.38Zm-20.87-65.74c-7.66,4.61-11.93,9.86-12.69,15.64-1.3,9.8,7.51,19,7.6,19.1l1.18,1.73c10.65,23.45,31.72,17.09,37,15,18.73-19.64,3.86-41,3.21-41.89a42,42,0,0,0-21.18-14Z" transform="translate(27.84)"/><path class="cls-53" d="M470.28,786.08c7.94-5.16,20.07-.59,27.07,10.2s6.23,23.71-1.72,28.86-20.07.58-27.07-10.2S462.32,791.23,470.28,786.08Z" transform="translate(27.84)"/><path class="cls-54" d="M488.18,833.2a24.09,24.09,0,0,1-8.55-1.62A35.44,35.44,0,0,1,457.86,798c.43-7.28,3.78-13.46,9.17-16.95h0c5.39-3.5,12.4-4,19.23-1.45A33.83,33.83,0,0,1,502.35,793c8.92,13.76,7.39,30.05-3.48,37.09A19.47,19.47,0,0,1,488.18,833.2Zm-10.49-43.29a7.57,7.57,0,0,0-4.17,1.16h0c-3,1.93-3.63,5.63-3.75,7.66a23.62,23.62,0,0,0,14.08,21.71c1.91.72,5.56,1.63,8.54-.3,5.1-3.3,5.08-12.75,0-20.63a22.22,22.22,0,0,0-10.28-8.75A12.76,12.76,0,0,0,477.69,789.91Z" transform="translate(27.84)"/><path class="cls-44" d="M226,396s-58.19-75.16-120-94.14c0,0-35.58,32.41,20.67,245" transform="translate(27.84)"/><path class="cls-50" d="M120.74,548.38c-55.59-210.1-22.8-247.49-18.87-251.06l2.57-2.35,3.33,1c62.93,19.32,120.61,93.1,123,96.23l-9.65,7.46c-.56-.71-55.05-70.38-112.7-90.63-5.67,11.41-21.72,63.06,24.09,236.2Z" transform="translate(27.84)"/><path class="cls-50" d="M171.09,462.36s-6.81-73.18-54.65-138.66c0,0-12.46-15.29-10,29,0,0,.46,78.56,29.08,164.93C135.51,517.63,140.17,450.42,171.09,462.36Z" transform="translate(27.84)"/><path class="cls-44" d="M82.7,631.05s-9.78-108.85,44-206.48c0,0,24.43-41.5,70.85-53.71,0,0,121.52-44.55,238.78,21.36,0,0,71.45,81.6,80.61,205.09,0,0,32.25,11.24,49.29,39.74,0,0-12.05,1.62-30.53,10.88,0,0,26.39,11.61,36,38.12h0s-28.12,4.52-48,12.85h0c8.43,7.83,15.56,14.35,19.87,28.81,0,0-18.21,0-46,4-30,23.33-94,59.37-209.44,67.82-21.3,1.56-15.18-1.12-50.24,7.54,0,0-41.09,13.64-74.41-13.16S86.25,764.37,60.71,718C60.71,718,31.13,674.88,82.7,631.05Z" transform="translate(27.84)"/><path class="cls-50" d="M212.75,816.75c-15.38,0-35.18-3.63-53.12-18-11.3-9.1-23.86-15.27-37.16-21.8-24.46-12-49.75-24.45-67.11-56h0s-30.8-46.28,21-92.44c-1.21-19-4.63-116.77,44.94-206.83,1.13-1.94,26.35-44,74.63-56.67.7-.28,125-44.56,243.33,21.94l1.6,1.31c2.94,3.36,71.47,82.89,81.8,204.84,9.43,4,34.12,16.41,48.75,40.88l4.75,7.94L567,643.1c-.07,0-6.94,1-18.07,5.51,9.29,6.39,22.12,17.85,28.46,35.37l2.51,6.92-7.28,1.17a281.06,281.06,0,0,0-37.74,9.16A56.88,56.88,0,0,1,549.38,726l2.34,7.84h-8.18c-.18,0-17.48.05-43.53,3.75-29.09,22.2-94.33,59.51-211.46,68.09-5.4.39-9.08.53-12.1.63-8.53.3-11.41.4-37.12,6.76A91.52,91.52,0,0,1,212.75,816.75Zm81.39-454.34c-54.64,0-93.85,13.93-94.53,14.18-44,11.61-67.45,50.67-67.69,51.07C79.84,522.29,88.68,629.44,88.77,630.51l.28,3.14-2.4,2.05c-46.83,39.81-22,77.24-20.9,78.82,15.82,28.68,38.3,39.73,62.11,51.43,13.31,6.54,27.07,13.31,39.43,23.24,30.22,24.33,68.29,12.27,68.66,12.13,27.39-6.79,30.85-6.91,40.07-7.23,2.91-.1,6.44-.22,11.64-.61,115.69-8.46,178.82-45.33,206.15-66.55l1.27-1,1.6-.23c16.77-2.45,30.05-3.44,38.13-3.84-3.7-7.74-8.7-12.38-15.08-18.3l-6.93-6.44,8.5-3.87c14-5.87,31.68-9.86,41.65-11.83-10.14-19.11-29.54-27.83-29.75-27.92l-11.88-5.22,11.6-5.82a140,140,0,0,1,23.24-9.31c-16.33-21.21-41-30-41.27-30.1l-3.78-1.32-.3-4C502.37,483.93,439.46,405.53,432.34,397,384.1,370.15,334.84,362.41,294.14,362.41Z" transform="translate(27.84)"/><path class="cls-52" d="M158.33,490.2c9.74-28.68,17.56-38.19,17.56-38.19l10.23,17.09c5.35-25.73,25.12-41.21,25.12-41.21,5.07,18.93,9,44.11,9,44.11a176.45,176.45,0,0,1,18.56-17.13c6,13.78,9.93,35.33,9.93,35.33,14,91.22,75.74,92.46,75.74,92.46,99.16,22.48,128.56,92,128.56,92,15.29,40.46-9,79.93-47.81,95.85-39.67,13.11-81.55,18.46-130,22-20.42,1.49-57.14,17.13-81.5,9.89,0,0-12.75-3.5-37.72-22.44-28-21.2-61.08-21-83.64-58.1,0,0-44.37-49.45,30-95.81C158.5,588.56,158.33,490.2,158.33,490.2Z" transform="translate(27.84)"/><path class="cls-44" d="M388,397.1s68.4-75.67,141.69-95.2c0,0,42.65,32.09-22,245.17" transform="translate(27.84)"/><path class="cls-50" d="M513.58,548.84,501.9,545.3C555.42,368.88,534.24,319,527.59,308.84c-69.28,20.35-134.36,91.62-135,92.35L383.51,393c2.85-3.14,70.46-77.23,144.64-97l2.87-.76,2.37,1.78C538.11,300.58,577.6,337.77,513.58,548.84Z" transform="translate(27.84)"/><path class="cls-50" d="M446.06,447.13S449,386,517.51,331.81c0,0,14.66-15.4,12.22,28.91,0,0,.27,70.62-32.84,157.24C496.89,518,482.7,434.93,446.06,447.13Z" transform="translate(27.84)"/><path class="cls-51" d="M357.78,368.48s-60,1.65-84,64.15c0,0-2.67-41.68,11.4-70.28C285.13,362.35,321.72,361.3,357.78,368.48Z" transform="translate(27.84)"/><path class="cls-51" d="M213.94,373.11s-40.33,23.81-48.25,59.31c0,0-8.76-15.66,0-39.47C165.68,393,187.87,374,213.94,373.11Z" transform="translate(27.84)"/><path class="cls-53" d="M517.83,594.65s-88.28,85.68-186.65,77c0,0-57.94.83-89.37-39.84,0,0-39.78-33.39-92.79,3.9,0,0-42.91,29.07-66.33-4.69,0,0-4.26-99.07,11.5-132,0,0,22.19-25.86,67.6,7.94,0,0,40.57,24.9,85.71-.8,0,0,95-63.91,194.14-12,0,0,46.39,21.52,68.24,47.34A343,343,0,0,1,517.83,594.65Z" transform="translate(27.84)"/><path class="cls-54" d="M345.47,677.62c-4.89,0-9.8-.21-14.76-.65-1.93.07-60,.4-92.72-41.38-4.3-3.34-39.23-28.34-85.91,4.5-16.43,11.12-52.87,24.11-73.76-6l-.87-1.27-.07-1.53c-.18-4.1-4.13-100.79,12-134.56l.76-1.17c1-1.21,26-29.21,74.82,7.13,1.16.68,38.17,22.62,79.89-1.15.64-.45,98.44-64.87,199.25-12.1,1.71.78,47.48,22.2,69.83,48.61l.81,1,.3,1.21a345,345,0,0,1,8.08,54.1l.16,2.45-1.76,1.71C518,601.85,438.84,677.62,345.47,677.62Zm-14.36-11.25C419,674,499.47,604.25,512.34,592.49A344.93,344.93,0,0,0,505,544c-21.19-24.23-65.15-44.78-65.6-45-95.48-50-188,11-188.93,11.6-47.67,27.14-89.69,2-91.46.92C121,483.22,101.82,499,98.64,502,85.08,531.94,87.5,616.62,88,629.25c20.37,27.16,56.53,3.14,58.08,2.09,55.65-39.13,98.77-3.93,99.19-3.57l.79.82C275.42,666.62,330.43,666.32,331.11,666.37Z" transform="translate(27.84)"/><path class="cls-8" d="M88.56,556.06c-4.75,30.42,9.78,59.33,32.46,64.57s52.86-7.25,57.61-37.67-17.72-51.39-40.4-56.63S93.31,525.64,88.56,556.06Z" transform="translate(27.84)"/><path class="cls-54" d="M131.53,626.63a51.82,51.82,0,0,1-11.6-1.29c-25.06-5.79-41.27-37.2-36.15-70,2.12-13.54,7.65-23.42,16.45-29.37,9.64-6.52,23.14-8,39.09-4.33,25.17,5.82,49.17,29.55,44.09,62.09a48.5,48.5,0,0,1-21.13,33.58A55.42,55.42,0,0,1,131.53,626.63Zm-8.37-97.32c-6.13,0-12.38,1.18-17.51,4.65C99.17,538.34,95,546,93.34,556.81c-4.36,27.92,8.54,54.44,28.77,59.11a45.73,45.73,0,0,0,34.76-6.64,39.1,39.1,0,0,0,17-27.06c4.22-27.06-15.28-46.23-36.72-51.18A63.34,63.34,0,0,0,123.16,529.31Z" transform="translate(27.84)"/><path class="cls-55" d="M131.5,552.79c13.77.59,24.72,14.87,24.45,31.89S144.29,615,130.52,614.44s-24.71-14.87-24.44-31.89S117.73,552.2,131.5,552.79Z" transform="translate(27.84)"/><path class="cls-56" d="M131.38,618.43l-1,0c-15.87-.68-28.54-16.79-28.24-35.92.17-10.42,4.14-20,10.89-26.41a25.29,25.29,0,0,1,18.67-7.25c15.88.67,28.55,16.79,28.25,35.91-.17,10.42-4.14,20-10.9,26.42A25.71,25.71,0,0,1,131.38,618.43Zm-.76-61.69a17.62,17.62,0,0,0-12.17,5.11c-5.2,4.91-8.27,12.48-8.4,20.76-.23,14.87,9,27.38,20.64,27.87a17.57,17.57,0,0,0,12.88-5.1c5.21-4.91,8.27-12.47,8.4-20.76.24-14.87-9-27.37-20.64-27.86h0C131.09,556.74,130.85,556.74,130.62,556.74Z" transform="translate(27.84)"/><path class="cls-57" d="M124.2,564.9c8.53.37,15.31,9.21,15.14,19.75s-7.21,18.79-15.74,18.42-15.31-9.2-15.14-19.74S115.68,564.53,124.2,564.9Z" transform="translate(27.84)"/><path class="cls-8" d="M140.87,569.75c5.48-1.88,11.36-.09,13.12,4s-1.25,9-6.73,10.83-11.36.1-13.13-4S135.38,571.64,140.87,569.75Z" transform="translate(27.84)"/><path class="cls-8" d="M255.81,574.25c-5.28,33.84,12.88,59.86,44.06,63.89C337.3,643,373.66,621.25,379,587.41s-18.83-58.06-44.06-63.89S261.1,540.41,255.81,574.25Z" transform="translate(27.84)"/><path class="cls-54" d="M310.39,643.65a85.83,85.83,0,0,1-11.14-.72c-15.93-2.06-29-9.37-37.88-21.16-9.54-12.71-13.21-29.86-10.34-48.26,2.34-15,12.52-29.18,28.66-40.09,18.22-12.3,40.86-18.16,56.29-14.61,27.41,6.33,53.46,32.78,47.75,69.34C378.69,620.41,346.93,643.65,310.39,643.65Zm15.77-116.22c-12.31,0-28.06,5.23-41.05,14-13.9,9.38-22.6,21.31-24.52,33.56-2.47,15.82.56,30.37,8.52,41,7.25,9.65,18.1,15.66,31.38,17.37,35.88,4.67,68.94-16.3,73.68-46.68C379,555.87,357,533.58,333.8,528.23A34,34,0,0,0,326.16,527.43Z" transform="translate(27.84)"/><path class="cls-55" d="M307.74,552.62c16.73.82,30.19,16.85,30.07,35.81S324,622.09,307.27,621.28s-30.2-16.85-30.07-35.81S291,551.81,307.74,552.62Z" transform="translate(27.84)"/><path class="cls-56" d="M308.58,625.28c-.5,0-1,0-1.51,0-18.8-.91-34-18.77-33.84-39.79.07-10.92,4.33-21.16,11.67-28.1a31.23,31.23,0,0,1,23-8.69h0c18.81.91,34,18.77,33.84,39.79-.07,10.92-4.33,21.16-11.67,28.1A31.19,31.19,0,0,1,308.58,625.28Zm-2.14-68.72a23.29,23.29,0,0,0-16.08,6.56c-5.78,5.46-9.13,13.62-9.19,22.38-.11,16.83,11.68,31.1,26.29,31.81a23.21,23.21,0,0,0,17.18-6.53c5.78-5.46,9.13-13.62,9.19-22.38.12-16.83-11.67-31.1-26.29-31.81C307.17,556.57,306.81,556.56,306.44,556.56Z" transform="translate(27.84)"/><path class="cls-57" d="M299,566c10.37.51,18.7,10.44,18.62,22.18s-8.55,20.84-18.91,20.33S280,598.11,280.1,586.37,288.65,565.52,299,566Z" transform="translate(27.84)"/><path class="cls-8" d="M318.56,572.26c7.79-2.23,15.73-.09,17.73,4.8s-2.73,10.66-10.52,12.89-15.74.1-17.73-4.79S310.75,574.5,318.56,572.26Z" transform="translate(27.84)"/><path class="cls-47" d="M242.79,553.28s-6.37,24.23,16.57,21.3c0,0,9.73.25,27-17,0,0,50.88-45.84,100.21-14.09,0,0-2.79-6.9-11.84-16.37,0,0-36.85-47.18-94,6.65C280.75,533.78,252,563.28,242.79,553.28Z" transform="translate(27.84)"/><path class="cls-47" d="M189.15,549.41s6.5,23.83-10.85,22.14c0,0-7.26.77-21.42-15.49,0,0-41.32-43-75.92-8.69,0,0,1.59-7,7.68-17,0,0,24.16-49,70.74,1.59C159.38,532,183,559.89,189.15,549.41Z" transform="translate(27.84)"/><path class="cls-58" d="M204.38,618.34s10.28-1.83,35.13,9.4c0,0,17.81,9.31-8.68,33.42,0,0-27,21.09-36.33,15.51,0,0-28-11.06-30.76-41.61C163.74,635.06,162.64,620.46,204.38,618.34Z" transform="translate(27.84)"/><path class="cls-34" d="M162.43,626.05c-4,4.49-3.92,8.6-3.86,9.39,2.91,31.77,30,44.27,33.63,45.82a12.76,12.76,0,0,0,5.77,1.45h0c12.8.36,33.74-15.72,36.09-17.55l.29-.25c11.8-10.73,17.19-20.57,16.05-29.24a16.89,16.89,0,0,0-8.46-12.44c-10.11-7.64-29.81-10-34.78-10.1a23.19,23.19,0,0,0-3.28.12C183,614.33,169.07,618.64,162.43,626.05Zm6.51,8.93c.28-1,3.72-9.92,35.71-11.53l.65-.08c.34,0,16.95-.11,31.8,8.9a6.87,6.87,0,0,1,3,4.85c.32,2.91-.9,9.38-12.68,20.15-7.77,6-22.42,15.42-29.21,15.23a2.38,2.38,0,0,1-1.07-.2l-.75-.37C195.43,671.53,171.6,661.63,168.94,635Z" transform="translate(27.84)"/><path class="cls-59" d="M221.84,631.7s.73,13.65-27.17,36.5c0,0-24.91-11.63-25.73-33.22C168.94,635,178.33,617.44,221.84,631.7Z" transform="translate(27.84)"/><g class="cls-60"><path class="cls-8" d="M208.88,628.77A12.6,12.6,0,1,1,196.8,642,12.73,12.73,0,0,1,208.88,628.77Z" transform="translate(27.84)"/></g><path class="cls-50" d="M252.82,724.75a40.51,40.51,0,0,1-13.27,9.55,43.22,43.22,0,0,1-16.71,4,35.86,35.86,0,0,1-18-4.29c-5.81-2.83-10.06-7.64-13.74-12.42l12.91-.16A41.52,41.52,0,0,1,193,731.7a31.79,31.79,0,0,1-14.47,5,24.1,24.1,0,0,1-14.59-3.41,27.21,27.21,0,0,1-9.54-9.66c4.28,1.36,8.12,2.74,11.91,2.94a19.7,19.7,0,0,0,10-1.37,27.85,27.85,0,0,0,8.16-5.19,41.33,41.33,0,0,0,6.56-7.35l5.67-8.47,7.25,8.31c2.72,3.12,5.33,6.25,8.69,8.21a32.05,32.05,0,0,0,11.16,4.56C232.29,727,242.18,726.31,252.82,724.75Z" transform="translate(27.84)"/><path class="cls-50" d="M141.89,692a127.25,127.25,0,0,0-29.16-11,134.18,134.18,0,0,0-31.39-4.18A125,125,0,0,0,49.65,680c-10.51,2.11-20.49,6.19-30.31,10.62,9.49-5,19.3-9.79,29.8-12.61a127.89,127.89,0,0,1,32.15-5.35A139.6,139.6,0,0,1,114,674.94a133.43,133.43,0,0,1,31.8,9.86Z" transform="translate(27.84)"/><path class="cls-50" d="M136.16,711.86c-5.34-2.18-12.34-3.24-18.86-3.4a87.71,87.71,0,0,0-20,2,111.9,111.9,0,0,0-19.47,6.3c-3.18,1.29-6.21,2.94-9.34,4.4l-9,5.12,8.5-6c3-1.77,5.88-3.73,9-5.36a114.81,114.81,0,0,1,19.3-8.42,92.58,92.58,0,0,1,20.94-4.19c7.28-.44,14.3-.34,22.09,1.94Z" transform="translate(27.84)"/><path class="cls-50" d="M253.58,693.07c15.61-6.49,31.5-8.9,47.61-9.61A191,191,0,0,1,348.87,688a229.51,229.51,0,0,1,44.91,15.79c7.27,3.17,14,7.41,21,11,6.74,4.14,13.29,8.57,19.93,12.83-6.82-4-13.54-8.13-20.42-12-7.14-3.34-14-7.26-21.34-10.1a226.31,226.31,0,0,0-44.91-13.73,186.31,186.31,0,0,0-46.52-2.52c-15.31,1.23-31,4.52-44.38,10.76Z" transform="translate(27.84)"/><path class="cls-50" d="M261.73,713c11.36-3,22.3-3.19,33.32-2a111.36,111.36,0,0,1,31.65,8.41,125.58,125.58,0,0,1,27.61,17c4.37,3.17,8,7.21,12,10.75,3.73,3.86,7.19,8,10.77,11.93-3.83-3.74-7.52-7.61-11.45-11.21-4.22-3.27-8-7-12.53-9.88A123.13,123.13,0,0,0,325.22,723a106.38,106.38,0,0,0-30.63-6.15c-10.27-.52-21,.57-30.27,3.6Z" transform="translate(27.84)"/><path class="cls-33" d="M417.86,953.88S296.56,998.57,151.78,964l-6.93,38.43s137.08,50,283.83-8.57C428.68,993.86,420.05,967,417.86,953.88Z" transform="translate(27.84)"/><path class="cls-34" d="M276.84,1028.06c-77.67,0-133.16-19.72-134-20l-4.71-1.71L147,956.74l6.13,1.46c141.39,33.77,261.43-9.47,262.62-9.91l6.75-2.48,1.19,7.09c2.1,12.55,10.54,38.87,10.62,39.14l1.71,5.28-5.17,2.07C376.27,1021.19,322.69,1028.06,276.84,1028.06ZM151.63,998.39c24.88,7.78,143.82,40,269.7-8-2.11-6.87-5.74-19-8-28.71-27,8.45-133.52,37.27-256.82,9.57Z" transform="translate(27.84)"/><ellipse class="cls-53" cx="287.01" cy="1001.02" rx="40.49" ry="29.49"/><path class="cls-54" d="M259.16,1036.46c-25.61,0-46.44-15.9-46.44-35.45s20.83-35.43,46.44-35.43,46.45,15.89,46.45,35.43S284.77,1036.46,259.16,1036.46Zm0-59c-18.71,0-34.53,10.78-34.53,23.53s15.82,23.54,34.53,23.54,34.53-10.78,34.53-23.54S277.88,977.48,259.16,977.48Z" transform="translate(27.84)"/><path class="cls-53" d="M380.49,961.06s-17.61,0-48.38,7.36c0,0,4.49,37.62,10.92,57a186.17,186.17,0,0,0,50.44-8.19S388.87,984.47,380.49,961.06Z" transform="translate(27.84)"/><path class="cls-54" d="M343,1031.39h-4.3l-1.35-4.08c-6.55-19.75-11-56.63-11.18-58.18l-.63-5.27,5.16-1.23c31.08-7.43,49-7.53,49.75-7.53h4.2l1.41,3.95c8.5,23.72,13.09,56,13.28,57.37l.69,5-4.77,1.53A190.45,190.45,0,0,1,343,1031.39ZM338.71,973c1.34,9.93,4.54,31.67,8.69,46.34a186.62,186.62,0,0,0,39.39-6.3c-1.5-9.19-5.12-29.27-10.5-45.84A253.6,253.6,0,0,0,338.71,973Z" transform="translate(27.84)"/><path class="cls-53" d="M380.49,961.06s9.15,15.21-3.33,19.18c0,0-7.49,3.17-28.3,4.23,0,0-12.26,0-12.26-17.38C336.6,967.09,354.23,960.38,380.49,961.06Z" transform="translate(27.84)"/><path class="cls-54" d="M349.09,989.23c-6.13,0-17.26-4.63-17.26-22.14v-3.27l3.07-1.17c.76-.29,18.75-7.12,45.71-6.35l2.61.06,1.35,2.24c.62,1,6,10.33,3,18.18-1,2.66-3.38,6.21-9,8-.43.2-8.45,3.37-29.49,4.45Zm-7.52-18.73c1.09,8.49,6.25,9.17,7.38,9.21,19-1,26.32-3.84,26.39-3.87,2.76-.9,3.18-2,3.34-2.42.76-2-.15-5.27-1.16-7.64h-.7A128.41,128.41,0,0,0,341.57,970.5Z" transform="translate(27.84)"/><path class="cls-53" d="M154.46,953.12s17.61,0,48.37,7.36c0,0-4.48,37.62-10.92,57a186.13,186.13,0,0,1-50.43-8.19S146.08,976.54,154.46,953.12Z" transform="translate(27.84)"/><path class="cls-54" d="M196.22,1023.45h-4.3a190.45,190.45,0,0,1-52.26-8.47l-4.78-1.53.7-5c.19-1.36,4.78-33.66,13.27-57.38l1.41-3.94h4.21c.74,0,18.67.09,49.75,7.52l5.16,1.24-.63,5.26c-.19,1.56-4.63,38.44-11.18,58.19Zm-48.06-18.34a185.69,185.69,0,0,0,39.39,6.29c4.14-14.67,7.35-36.41,8.69-46.33a252.2,252.2,0,0,0-37.58-5.8C153.28,975.83,149.66,995.91,148.16,1005.11Z" transform="translate(27.84)"/><path class="cls-53" d="M154.46,953.12s-9.16,15.21,3.33,19.18c0,0,7.49,3.18,28.3,4.24,0,0,12.26,0,12.26-17.38C198.35,959.16,180.71,952.44,154.46,953.12Z" transform="translate(27.84)"/><path class="cls-54" d="M186.09,981.29c-21.29-1.07-29.31-4.24-30.16-4.6a13,13,0,0,1-8.58-7.84c-3-7.86,2.41-17.15,3-18.19l1.34-2.24,2.62-.06c26.93-.78,44.95,6.06,45.7,6.35l3.08,1.17v3.28C203.12,976.67,192,981.29,186.09,981.29Zm-28.67-23.45c-1,2.4-1.92,5.63-1.15,7.66.16.41.58,1.51,3,2.27.44.16,7.76,3,27.09,4,.84,0,6-.73,7-9.22a128.48,128.48,0,0,0-35.25-4.73Z" transform="translate(27.84)"/></g></g></g></svg>