<svg xmlns="http://www.w3.org/2000/svg" viewBox="0 0 195.59 199.2"><defs><style>.cls-1,.cls-2{fill:#c94b06;}.cls-1{stroke:#773009;stroke-linecap:round;stroke-linejoin:round;stroke-width:15.05px;}.cls-3{fill:#fedd02;}.cls-4{fill:#fff;}.cls-5{opacity:0.3;}.cls-6{fill:#f29101;}</style></defs><title>Asset 347</title><g id="Layer_2" data-name="Layer 2"><g id="ICONS_IN_USE" data-name="ICONS IN USE"><path class="cls-1" d="M150.79,191.67a4.51,4.51,0,0,1-2.11-.52l-50.88-27-50.9,27a4.52,4.52,0,0,1-4.76-.34c-1.39-1-3.89-2.72-3.6-4.41l11.52-57.11L8.87,88.84c-1.22-1.2-1.66-12-1.13-13.65s1.95-1,3.64-1.26l56.91-1.1L93.74,20.88a4.51,4.51,0,0,1,4.06-2.53h0a4.51,4.51,0,0,1,4,2.53l25.45,52,56.9,1.1c1.7.25,3.11-.37,3.64,1.26s.09,12.45-1.13,13.65l-41.2,40.45L157,185.84a4.39,4.39,0,0,1,.2,1.32c0,2.49-3.82,4.51-6.32,4.51Z"/><path class="cls-1" d="M150.79,180.84a4.51,4.51,0,0,1-2.11-.52L97.8,153.37,46.9,180.32a4.52,4.52,0,0,1-6.56-4.75l9.72-57.12L8.87,78a4.52,4.52,0,0,1,2.51-7.69L68.29,62,93.74,10.05A4.51,4.51,0,0,1,97.8,7.52h0a4.51,4.51,0,0,1,4,2.53L127.3,62l56.9,8.33A4.52,4.52,0,0,1,186.71,78l-41.2,40.44L155.15,175a4.71,4.71,0,0,1,.19,1.31,4.51,4.51,0,0,1-4.51,4.52Z"/><path class="cls-2" d="M150.79,191.67a4.51,4.51,0,0,1-2.11-.52l-50.88-27-50.9,27a4.52,4.52,0,0,1-4.76-.34c-1.39-1-3.89-2.72-3.6-4.41l11.52-57.11L8.87,88.84c-1.22-1.2-1.66-12-1.13-13.65s1.95-1,3.64-1.26l56.91-1.1L93.74,20.88a4.51,4.51,0,0,1,4.06-2.53h0a4.51,4.51,0,0,1,4,2.53l25.45,52,56.9,1.1c1.7.25,3.11-.37,3.64,1.26s.09,12.45-1.13,13.65l-41.2,40.45L157,185.84a4.39,4.39,0,0,1,.2,1.32c0,2.49-3.82,4.51-6.32,4.51Z"/><path class="cls-3" d="M150.79,180.84a4.51,4.51,0,0,1-2.11-.52L97.8,153.37,46.9,180.32a4.52,4.52,0,0,1-6.56-4.75l9.72-57.12L8.87,78a4.52,4.52,0,0,1,2.51-7.69L68.29,62,93.74,10.05A4.51,4.51,0,0,1,97.8,7.52h0a4.51,4.51,0,0,1,4,2.53L127.3,62l56.9,8.33A4.52,4.52,0,0,1,186.71,78l-41.2,40.44L155.15,175a4.71,4.71,0,0,1,.19,1.31,4.51,4.51,0,0,1-4.51,4.52Z"/><path class="cls-4" d="M93.89,18.34C90,24.53,76.47,50.87,95.64,43.55c17.42-6.63,6.81-38.8-1.75-25.21C91.71,21.8,95.71,15.44,93.89,18.34Z"/><path class="cls-4" d="M80.5,47c-2.45,1.52-5,5.07-4.41,7.84a7.78,7.78,0,0,0,3.5,5.34,8,8,0,0,0,8-.47c3.07-2.15,3.78-7.73,1.21-10.48C86.4,46.64,83.85,46,80.5,47Z"/><path class="cls-4" d="M47,71.53c-7.46-2.09-38.74-1-28.89,9.82,13.63,15,39.46-6.88,28.89-9.82Z"/><g class="cls-5"><path class="cls-6" d="M187.84,73.39a4.52,4.52,0,0,0-3.64-3.07l-45.4-6.64c-1.33,43.19-37.71,78.8-81.18,78.8a79.42,79.42,0,0,1-11.5-.85l-5.78,33.94a4.52,4.52,0,0,0,6.56,4.75l50.9-26.95,50.88,26.95a4.51,4.51,0,0,0,2.11.52h0a4.51,4.51,0,0,0,4.51-4.52,4.71,4.71,0,0,0-.19-1.31l-9.64-56.56L186.71,78A4.53,4.53,0,0,0,187.84,73.39Z"/></g><g class="cls-5"><path class="cls-6" d="M187.84,73.39a4.52,4.52,0,0,0-3.64-3.07l-34.12-5c0,.89.07,1.78.07,2.68,0,46.75-39,85.75-85.75,85.75a83.16,83.16,0,0,1-19.93-2.43l-4.13,24.24a4.52,4.52,0,0,0,6.56,4.75l50.9-26.95,50.88,26.95a4.51,4.51,0,0,0,2.11.52h0a4.51,4.51,0,0,0,4.51-4.52,4.71,4.71,0,0,0-.19-1.31l-9.64-56.56L186.71,78A4.53,4.53,0,0,0,187.84,73.39Z"/></g></g></g></svg>